%TF.GenerationSoftware,KiCad,Pcbnew,10.0.6*%
%TF.CreationDate,2026-10-10T21:50:40+01:00*%
%TF.ProjectId,KiCad PCB,4b694361-6420-4504-9342-2e6b69636164,rev?*%
%TF.SameCoordinates,Original*%
%TF.FileFunction,Legend,Top*%
%TF.FilePolarity,Positive*%
%FSLAX46Y46*%
G04 Gerber Fmt 4.6, Leading zero omitted, Abs format (unit mm)*
G04 Created by KiCad (PCBNEW 10.0.6) date 2026-10-10 21:50:40*
%MOMM*%
%LPD*%
G01*
G04 APERTURE LIST*
%ADD10C,0.150000*%
%ADD11C,0.101600*%
%ADD12C,0.120000*%
%ADD13C,0.000000*%
%ADD14C,0.127000*%
%ADD15C,0.100000*%
%ADD16C,0.504000*%
G04 APERTURE END LIST*
D10*
X182626667Y-100363200D02*
X182769524Y-100410819D01*
X182769524Y-100410819D02*
X183007619Y-100410819D01*
X183007619Y-100410819D02*
X183102857Y-100363200D01*
X183102857Y-100363200D02*
X183150476Y-100315580D01*
X183150476Y-100315580D02*
X183198095Y-100220342D01*
X183198095Y-100220342D02*
X183198095Y-100125104D01*
X183198095Y-100125104D02*
X183150476Y-100029866D01*
X183150476Y-100029866D02*
X183102857Y-99982247D01*
X183102857Y-99982247D02*
X183007619Y-99934628D01*
X183007619Y-99934628D02*
X182817143Y-99887009D01*
X182817143Y-99887009D02*
X182721905Y-99839390D01*
X182721905Y-99839390D02*
X182674286Y-99791771D01*
X182674286Y-99791771D02*
X182626667Y-99696533D01*
X182626667Y-99696533D02*
X182626667Y-99601295D01*
X182626667Y-99601295D02*
X182674286Y-99506057D01*
X182674286Y-99506057D02*
X182721905Y-99458438D01*
X182721905Y-99458438D02*
X182817143Y-99410819D01*
X182817143Y-99410819D02*
X183055238Y-99410819D01*
X183055238Y-99410819D02*
X183198095Y-99458438D01*
X183531429Y-99410819D02*
X183769524Y-100410819D01*
X183769524Y-100410819D02*
X183960000Y-99696533D01*
X183960000Y-99696533D02*
X184150476Y-100410819D01*
X184150476Y-100410819D02*
X184388572Y-99410819D01*
X184721905Y-99506057D02*
X184769524Y-99458438D01*
X184769524Y-99458438D02*
X184864762Y-99410819D01*
X184864762Y-99410819D02*
X185102857Y-99410819D01*
X185102857Y-99410819D02*
X185198095Y-99458438D01*
X185198095Y-99458438D02*
X185245714Y-99506057D01*
X185245714Y-99506057D02*
X185293333Y-99601295D01*
X185293333Y-99601295D02*
X185293333Y-99696533D01*
X185293333Y-99696533D02*
X185245714Y-99839390D01*
X185245714Y-99839390D02*
X184674286Y-100410819D01*
X184674286Y-100410819D02*
X185293333Y-100410819D01*
X197038095Y-103034819D02*
X197038095Y-103844342D01*
X197038095Y-103844342D02*
X197085714Y-103939580D01*
X197085714Y-103939580D02*
X197133333Y-103987200D01*
X197133333Y-103987200D02*
X197228571Y-104034819D01*
X197228571Y-104034819D02*
X197419047Y-104034819D01*
X197419047Y-104034819D02*
X197514285Y-103987200D01*
X197514285Y-103987200D02*
X197561904Y-103939580D01*
X197561904Y-103939580D02*
X197609523Y-103844342D01*
X197609523Y-103844342D02*
X197609523Y-103034819D01*
X198609523Y-104034819D02*
X198038095Y-104034819D01*
X198323809Y-104034819D02*
X198323809Y-103034819D01*
X198323809Y-103034819D02*
X198228571Y-103177676D01*
X198228571Y-103177676D02*
X198133333Y-103272914D01*
X198133333Y-103272914D02*
X198038095Y-103320533D01*
X182516667Y-72983200D02*
X182659524Y-73030819D01*
X182659524Y-73030819D02*
X182897619Y-73030819D01*
X182897619Y-73030819D02*
X182992857Y-72983200D01*
X182992857Y-72983200D02*
X183040476Y-72935580D01*
X183040476Y-72935580D02*
X183088095Y-72840342D01*
X183088095Y-72840342D02*
X183088095Y-72745104D01*
X183088095Y-72745104D02*
X183040476Y-72649866D01*
X183040476Y-72649866D02*
X182992857Y-72602247D01*
X182992857Y-72602247D02*
X182897619Y-72554628D01*
X182897619Y-72554628D02*
X182707143Y-72507009D01*
X182707143Y-72507009D02*
X182611905Y-72459390D01*
X182611905Y-72459390D02*
X182564286Y-72411771D01*
X182564286Y-72411771D02*
X182516667Y-72316533D01*
X182516667Y-72316533D02*
X182516667Y-72221295D01*
X182516667Y-72221295D02*
X182564286Y-72126057D01*
X182564286Y-72126057D02*
X182611905Y-72078438D01*
X182611905Y-72078438D02*
X182707143Y-72030819D01*
X182707143Y-72030819D02*
X182945238Y-72030819D01*
X182945238Y-72030819D02*
X183088095Y-72078438D01*
X183421429Y-72030819D02*
X183659524Y-73030819D01*
X183659524Y-73030819D02*
X183850000Y-72316533D01*
X183850000Y-72316533D02*
X184040476Y-73030819D01*
X184040476Y-73030819D02*
X184278572Y-72030819D01*
X185183333Y-73030819D02*
X184611905Y-73030819D01*
X184897619Y-73030819D02*
X184897619Y-72030819D01*
X184897619Y-72030819D02*
X184802381Y-72173676D01*
X184802381Y-72173676D02*
X184707143Y-72268914D01*
X184707143Y-72268914D02*
X184611905Y-72316533D01*
X210662066Y-80477019D02*
X210662066Y-81191304D01*
X210662066Y-81191304D02*
X210614447Y-81334161D01*
X210614447Y-81334161D02*
X210519209Y-81429400D01*
X210519209Y-81429400D02*
X210376352Y-81477019D01*
X210376352Y-81477019D02*
X210281114Y-81477019D01*
X211662066Y-81477019D02*
X211090638Y-81477019D01*
X211376352Y-81477019D02*
X211376352Y-80477019D01*
X211376352Y-80477019D02*
X211281114Y-80619876D01*
X211281114Y-80619876D02*
X211185876Y-80715114D01*
X211185876Y-80715114D02*
X211090638Y-80762733D01*
X206880667Y-71812438D02*
X206814000Y-71764819D01*
X206814000Y-71764819D02*
X206714000Y-71764819D01*
X206714000Y-71764819D02*
X206614000Y-71812438D01*
X206614000Y-71812438D02*
X206547334Y-71907676D01*
X206547334Y-71907676D02*
X206514000Y-72002914D01*
X206514000Y-72002914D02*
X206480667Y-72193390D01*
X206480667Y-72193390D02*
X206480667Y-72336247D01*
X206480667Y-72336247D02*
X206514000Y-72526723D01*
X206514000Y-72526723D02*
X206547334Y-72621961D01*
X206547334Y-72621961D02*
X206614000Y-72717200D01*
X206614000Y-72717200D02*
X206714000Y-72764819D01*
X206714000Y-72764819D02*
X206780667Y-72764819D01*
X206780667Y-72764819D02*
X206880667Y-72717200D01*
X206880667Y-72717200D02*
X206914000Y-72669580D01*
X206914000Y-72669580D02*
X206914000Y-72336247D01*
X206914000Y-72336247D02*
X206780667Y-72336247D01*
X207214000Y-72764819D02*
X207214000Y-71764819D01*
X207214000Y-71764819D02*
X207614000Y-72764819D01*
X207614000Y-72764819D02*
X207614000Y-71764819D01*
X207947333Y-72764819D02*
X207947333Y-71764819D01*
X207947333Y-71764819D02*
X208114000Y-71764819D01*
X208114000Y-71764819D02*
X208214000Y-71812438D01*
X208214000Y-71812438D02*
X208280667Y-71907676D01*
X208280667Y-71907676D02*
X208314000Y-72002914D01*
X208314000Y-72002914D02*
X208347333Y-72193390D01*
X208347333Y-72193390D02*
X208347333Y-72336247D01*
X208347333Y-72336247D02*
X208314000Y-72526723D01*
X208314000Y-72526723D02*
X208280667Y-72621961D01*
X208280667Y-72621961D02*
X208214000Y-72717200D01*
X208214000Y-72717200D02*
X208114000Y-72764819D01*
X208114000Y-72764819D02*
X207947333Y-72764819D01*
X209020666Y-71764819D02*
X209254000Y-72764819D01*
X209254000Y-72764819D02*
X209487333Y-71764819D01*
X209720666Y-72764819D02*
X209720666Y-71764819D01*
X209720666Y-71764819D02*
X209887333Y-71764819D01*
X209887333Y-71764819D02*
X209987333Y-71812438D01*
X209987333Y-71812438D02*
X210054000Y-71907676D01*
X210054000Y-71907676D02*
X210087333Y-72002914D01*
X210087333Y-72002914D02*
X210120666Y-72193390D01*
X210120666Y-72193390D02*
X210120666Y-72336247D01*
X210120666Y-72336247D02*
X210087333Y-72526723D01*
X210087333Y-72526723D02*
X210054000Y-72621961D01*
X210054000Y-72621961D02*
X209987333Y-72717200D01*
X209987333Y-72717200D02*
X209887333Y-72764819D01*
X209887333Y-72764819D02*
X209720666Y-72764819D01*
X210420666Y-72764819D02*
X210420666Y-71764819D01*
X210420666Y-71764819D02*
X210587333Y-71764819D01*
X210587333Y-71764819D02*
X210687333Y-71812438D01*
X210687333Y-71812438D02*
X210754000Y-71907676D01*
X210754000Y-71907676D02*
X210787333Y-72002914D01*
X210787333Y-72002914D02*
X210820666Y-72193390D01*
X210820666Y-72193390D02*
X210820666Y-72336247D01*
X210820666Y-72336247D02*
X210787333Y-72526723D01*
X210787333Y-72526723D02*
X210754000Y-72621961D01*
X210754000Y-72621961D02*
X210687333Y-72717200D01*
X210687333Y-72717200D02*
X210587333Y-72764819D01*
X210587333Y-72764819D02*
X210420666Y-72764819D01*
X211660666Y-72717200D02*
X211760666Y-72764819D01*
X211760666Y-72764819D02*
X211927333Y-72764819D01*
X211927333Y-72764819D02*
X211993999Y-72717200D01*
X211993999Y-72717200D02*
X212027333Y-72669580D01*
X212027333Y-72669580D02*
X212060666Y-72574342D01*
X212060666Y-72574342D02*
X212060666Y-72479104D01*
X212060666Y-72479104D02*
X212027333Y-72383866D01*
X212027333Y-72383866D02*
X211993999Y-72336247D01*
X211993999Y-72336247D02*
X211927333Y-72288628D01*
X211927333Y-72288628D02*
X211793999Y-72241009D01*
X211793999Y-72241009D02*
X211727333Y-72193390D01*
X211727333Y-72193390D02*
X211693999Y-72145771D01*
X211693999Y-72145771D02*
X211660666Y-72050533D01*
X211660666Y-72050533D02*
X211660666Y-71955295D01*
X211660666Y-71955295D02*
X211693999Y-71860057D01*
X211693999Y-71860057D02*
X211727333Y-71812438D01*
X211727333Y-71812438D02*
X211793999Y-71764819D01*
X211793999Y-71764819D02*
X211960666Y-71764819D01*
X211960666Y-71764819D02*
X212060666Y-71812438D01*
X212760666Y-72669580D02*
X212727333Y-72717200D01*
X212727333Y-72717200D02*
X212627333Y-72764819D01*
X212627333Y-72764819D02*
X212560666Y-72764819D01*
X212560666Y-72764819D02*
X212460666Y-72717200D01*
X212460666Y-72717200D02*
X212394000Y-72621961D01*
X212394000Y-72621961D02*
X212360666Y-72526723D01*
X212360666Y-72526723D02*
X212327333Y-72336247D01*
X212327333Y-72336247D02*
X212327333Y-72193390D01*
X212327333Y-72193390D02*
X212360666Y-72002914D01*
X212360666Y-72002914D02*
X212394000Y-71907676D01*
X212394000Y-71907676D02*
X212460666Y-71812438D01*
X212460666Y-71812438D02*
X212560666Y-71764819D01*
X212560666Y-71764819D02*
X212627333Y-71764819D01*
X212627333Y-71764819D02*
X212727333Y-71812438D01*
X212727333Y-71812438D02*
X212760666Y-71860057D01*
X213394000Y-72764819D02*
X213060666Y-72764819D01*
X213060666Y-72764819D02*
X213060666Y-71764819D01*
X214311000Y-72717200D02*
X214411000Y-72764819D01*
X214411000Y-72764819D02*
X214577667Y-72764819D01*
X214577667Y-72764819D02*
X214644333Y-72717200D01*
X214644333Y-72717200D02*
X214677667Y-72669580D01*
X214677667Y-72669580D02*
X214711000Y-72574342D01*
X214711000Y-72574342D02*
X214711000Y-72479104D01*
X214711000Y-72479104D02*
X214677667Y-72383866D01*
X214677667Y-72383866D02*
X214644333Y-72336247D01*
X214644333Y-72336247D02*
X214577667Y-72288628D01*
X214577667Y-72288628D02*
X214444333Y-72241009D01*
X214444333Y-72241009D02*
X214377667Y-72193390D01*
X214377667Y-72193390D02*
X214344333Y-72145771D01*
X214344333Y-72145771D02*
X214311000Y-72050533D01*
X214311000Y-72050533D02*
X214311000Y-71955295D01*
X214311000Y-71955295D02*
X214344333Y-71860057D01*
X214344333Y-71860057D02*
X214377667Y-71812438D01*
X214377667Y-71812438D02*
X214444333Y-71764819D01*
X214444333Y-71764819D02*
X214611000Y-71764819D01*
X214611000Y-71764819D02*
X214711000Y-71812438D01*
X215011000Y-72764819D02*
X215011000Y-71764819D01*
X215011000Y-71764819D02*
X215177667Y-71764819D01*
X215177667Y-71764819D02*
X215277667Y-71812438D01*
X215277667Y-71812438D02*
X215344334Y-71907676D01*
X215344334Y-71907676D02*
X215377667Y-72002914D01*
X215377667Y-72002914D02*
X215411000Y-72193390D01*
X215411000Y-72193390D02*
X215411000Y-72336247D01*
X215411000Y-72336247D02*
X215377667Y-72526723D01*
X215377667Y-72526723D02*
X215344334Y-72621961D01*
X215344334Y-72621961D02*
X215277667Y-72717200D01*
X215277667Y-72717200D02*
X215177667Y-72764819D01*
X215177667Y-72764819D02*
X215011000Y-72764819D01*
X215677667Y-72479104D02*
X216011000Y-72479104D01*
X215611000Y-72764819D02*
X215844334Y-71764819D01*
X215844334Y-71764819D02*
X216077667Y-72764819D01*
D11*
X213121190Y-103933479D02*
X213121190Y-104447526D01*
X213121190Y-104447526D02*
X213151428Y-104508002D01*
X213151428Y-104508002D02*
X213181666Y-104538241D01*
X213181666Y-104538241D02*
X213242142Y-104568479D01*
X213242142Y-104568479D02*
X213363095Y-104568479D01*
X213363095Y-104568479D02*
X213423571Y-104538241D01*
X213423571Y-104538241D02*
X213453809Y-104508002D01*
X213453809Y-104508002D02*
X213484047Y-104447526D01*
X213484047Y-104447526D02*
X213484047Y-103933479D01*
X213756190Y-103993955D02*
X213786428Y-103963717D01*
X213786428Y-103963717D02*
X213846904Y-103933479D01*
X213846904Y-103933479D02*
X213998095Y-103933479D01*
X213998095Y-103933479D02*
X214058571Y-103963717D01*
X214058571Y-103963717D02*
X214088809Y-103993955D01*
X214088809Y-103993955D02*
X214119047Y-104054431D01*
X214119047Y-104054431D02*
X214119047Y-104114907D01*
X214119047Y-104114907D02*
X214088809Y-104205621D01*
X214088809Y-104205621D02*
X213725952Y-104568479D01*
X213725952Y-104568479D02*
X214119047Y-104568479D01*
D10*
X183773333Y-92534819D02*
X183440000Y-92058628D01*
X183201905Y-92534819D02*
X183201905Y-91534819D01*
X183201905Y-91534819D02*
X183582857Y-91534819D01*
X183582857Y-91534819D02*
X183678095Y-91582438D01*
X183678095Y-91582438D02*
X183725714Y-91630057D01*
X183725714Y-91630057D02*
X183773333Y-91725295D01*
X183773333Y-91725295D02*
X183773333Y-91868152D01*
X183773333Y-91868152D02*
X183725714Y-91963390D01*
X183725714Y-91963390D02*
X183678095Y-92011009D01*
X183678095Y-92011009D02*
X183582857Y-92058628D01*
X183582857Y-92058628D02*
X183201905Y-92058628D01*
X184725714Y-92534819D02*
X184154286Y-92534819D01*
X184440000Y-92534819D02*
X184440000Y-91534819D01*
X184440000Y-91534819D02*
X184344762Y-91677676D01*
X184344762Y-91677676D02*
X184249524Y-91772914D01*
X184249524Y-91772914D02*
X184154286Y-91820533D01*
X202434819Y-100483333D02*
X203149104Y-100483333D01*
X203149104Y-100483333D02*
X203291961Y-100530952D01*
X203291961Y-100530952D02*
X203387200Y-100626190D01*
X203387200Y-100626190D02*
X203434819Y-100769047D01*
X203434819Y-100769047D02*
X203434819Y-100864285D01*
X202530057Y-100054761D02*
X202482438Y-100007142D01*
X202482438Y-100007142D02*
X202434819Y-99911904D01*
X202434819Y-99911904D02*
X202434819Y-99673809D01*
X202434819Y-99673809D02*
X202482438Y-99578571D01*
X202482438Y-99578571D02*
X202530057Y-99530952D01*
X202530057Y-99530952D02*
X202625295Y-99483333D01*
X202625295Y-99483333D02*
X202720533Y-99483333D01*
X202720533Y-99483333D02*
X202863390Y-99530952D01*
X202863390Y-99530952D02*
X203434819Y-100102380D01*
X203434819Y-100102380D02*
X203434819Y-99483333D01*
%TO.C,SW2*%
D12*
X176975000Y-100845000D02*
X190945000Y-100845000D01*
X176975000Y-114815000D02*
X176975000Y-100845000D01*
X190945000Y-100845000D02*
X190945000Y-114815000D01*
X190945000Y-114815000D02*
X176975000Y-114815000D01*
%TO.C,U1*%
X195640000Y-104480000D02*
X195640000Y-106480000D01*
X195640000Y-104480000D02*
X197250000Y-104480000D01*
X195920000Y-117020000D02*
X195920000Y-104770000D01*
X195930000Y-104760000D02*
X201670000Y-104760000D01*
X201680000Y-104760000D02*
X201680000Y-117020000D01*
X201680000Y-117020000D02*
X195920000Y-117020000D01*
%TO.C,SW1*%
X176865000Y-73465000D02*
X190835000Y-73465000D01*
X176865000Y-87435000D02*
X176865000Y-73465000D01*
X190835000Y-73465000D02*
X190835000Y-87435000D01*
X190835000Y-87435000D02*
X176865000Y-87435000D01*
D13*
%TO.C,G\u002A\u002A\u002A*%
G36*
X227890717Y-112621267D02*
G01*
X227889396Y-112626984D01*
X227884305Y-112627678D01*
X227876388Y-112624160D01*
X227877893Y-112621267D01*
X227889307Y-112620116D01*
X227890717Y-112621267D01*
G37*
G36*
X231760185Y-107768399D02*
G01*
X231760185Y-107982393D01*
X231543790Y-107982393D01*
X231327395Y-107982393D01*
X231327395Y-107770806D01*
X231327499Y-107701567D01*
X231327938Y-107649205D01*
X231328896Y-107611366D01*
X231330559Y-107585691D01*
X231333114Y-107569825D01*
X231336747Y-107561411D01*
X231341644Y-107558093D01*
X231344225Y-107557642D01*
X231358614Y-107557128D01*
X231389085Y-107556602D01*
X231432484Y-107556099D01*
X231485658Y-107555654D01*
X231545455Y-107555302D01*
X231560621Y-107555235D01*
X231760185Y-107554405D01*
X231760185Y-107768399D01*
G37*
G36*
X230230992Y-106460413D02*
G01*
X230230992Y-106679214D01*
X230555585Y-106679594D01*
X230880178Y-106679975D01*
X230882763Y-106898393D01*
X230885348Y-107116811D01*
X231106555Y-107116811D01*
X231327763Y-107116811D01*
X231325174Y-107330802D01*
X231322586Y-107544793D01*
X230887391Y-107547296D01*
X230452196Y-107549798D01*
X230452196Y-107765915D01*
X230452196Y-107982031D01*
X230233396Y-107984616D01*
X230014596Y-107987201D01*
X230012125Y-108643600D01*
X230009654Y-109300000D01*
X230230925Y-109300000D01*
X230452196Y-109300000D01*
X230452196Y-109521204D01*
X230452196Y-109742408D01*
X230889795Y-109742408D01*
X231327395Y-109742408D01*
X231327395Y-109521204D01*
X231327395Y-109300000D01*
X231110999Y-109300000D01*
X230894604Y-109300000D01*
X230894604Y-108862400D01*
X230894604Y-108424801D01*
X231327395Y-108424801D01*
X231760185Y-108424801D01*
X231760185Y-108646005D01*
X231760185Y-108867209D01*
X231981389Y-108867209D01*
X232202593Y-108867209D01*
X232202593Y-110502196D01*
X232202593Y-112137182D01*
X231986198Y-112137182D01*
X231769803Y-112137182D01*
X231769803Y-111920787D01*
X231769803Y-111704392D01*
X231553588Y-111704392D01*
X231337373Y-111704392D01*
X231334788Y-111485592D01*
X231332203Y-111266792D01*
X231108595Y-111264211D01*
X230884986Y-111261629D01*
X230884986Y-111483010D01*
X230884986Y-111704392D01*
X230666187Y-111704383D01*
X230447387Y-111704375D01*
X230450143Y-111920779D01*
X230452898Y-112137182D01*
X230125550Y-112137182D01*
X229798201Y-112137182D01*
X229798201Y-111699583D01*
X229798201Y-111261984D01*
X229355379Y-111261984D01*
X228912557Y-111261984D01*
X228913521Y-111466357D01*
X228913790Y-111540520D01*
X228913975Y-111627129D01*
X228914069Y-111719394D01*
X228914065Y-111810528D01*
X228913957Y-111893740D01*
X228913934Y-111903956D01*
X228913385Y-112137182D01*
X228480162Y-112137182D01*
X228046939Y-112137182D01*
X228047827Y-111995323D01*
X228048125Y-111937236D01*
X228048309Y-111878707D01*
X228048369Y-111825896D01*
X228048292Y-111784965D01*
X228048260Y-111778928D01*
X228047804Y-111704392D01*
X227831408Y-111704392D01*
X227615013Y-111704392D01*
X227615013Y-111483188D01*
X227615013Y-111261984D01*
X227389000Y-111261984D01*
X227162987Y-111261984D01*
X227162987Y-111483188D01*
X227162987Y-111704392D01*
X226946592Y-111704392D01*
X226730197Y-111704392D01*
X226730197Y-111920787D01*
X226730197Y-112137182D01*
X226513801Y-112137182D01*
X226297406Y-112137182D01*
X226297406Y-110502196D01*
X226297406Y-108867209D01*
X226518610Y-108867209D01*
X226739814Y-108867209D01*
X226739814Y-108641196D01*
X227605395Y-108641196D01*
X227605395Y-109300000D01*
X227826599Y-109300000D01*
X228047804Y-109300000D01*
X228047804Y-109521204D01*
X228047804Y-109742408D01*
X228485403Y-109742408D01*
X228923002Y-109742408D01*
X228923002Y-109521204D01*
X228923002Y-109300000D01*
X228706804Y-109300000D01*
X228490606Y-109300000D01*
X228488004Y-108878467D01*
X228487528Y-108789790D01*
X228487220Y-108706729D01*
X228487076Y-108631329D01*
X228487095Y-108565635D01*
X228487274Y-108511692D01*
X228487611Y-108471545D01*
X228488104Y-108447238D01*
X228488513Y-108440868D01*
X228490480Y-108437065D01*
X228495871Y-108433910D01*
X228506322Y-108431343D01*
X228523470Y-108429304D01*
X228548953Y-108427734D01*
X228584408Y-108426573D01*
X228631474Y-108425760D01*
X228691787Y-108425237D01*
X228766985Y-108424943D01*
X228858705Y-108424819D01*
X228928697Y-108424801D01*
X229365772Y-108424801D01*
X229363187Y-108206001D01*
X229360602Y-107987201D01*
X229141802Y-107984616D01*
X228923002Y-107982031D01*
X228923002Y-107765817D01*
X228923002Y-107549602D01*
X228485403Y-107549602D01*
X228047804Y-107549602D01*
X228047804Y-107765997D01*
X228047804Y-107982393D01*
X227826599Y-107982393D01*
X227605395Y-107982393D01*
X227605395Y-108641196D01*
X226739814Y-108641196D01*
X226739814Y-108213862D01*
X226739837Y-108085641D01*
X226739922Y-107982393D01*
X226739928Y-107975306D01*
X226740122Y-107881509D01*
X226740453Y-107802900D01*
X226740957Y-107738130D01*
X226741666Y-107685852D01*
X226742617Y-107644715D01*
X226743843Y-107613371D01*
X226745379Y-107590471D01*
X226747259Y-107574666D01*
X226749519Y-107564608D01*
X226752191Y-107558947D01*
X226755312Y-107556334D01*
X226756645Y-107555854D01*
X226771035Y-107554533D01*
X226801503Y-107553534D01*
X226844896Y-107552897D01*
X226898058Y-107552666D01*
X226957835Y-107552880D01*
X226972865Y-107553003D01*
X227172255Y-107554814D01*
X227174834Y-107338217D01*
X227177414Y-107121620D01*
X227396033Y-107119036D01*
X227614653Y-107116451D01*
X227617237Y-106897832D01*
X227619822Y-106679212D01*
X228052612Y-106679212D01*
X228485403Y-106679212D01*
X228487988Y-106460412D01*
X228490573Y-106241613D01*
X229360782Y-106241613D01*
X230230992Y-106241613D01*
X230230992Y-106460413D01*
G37*
%TO.C,J1*%
D12*
X197508000Y-68754000D02*
X224940000Y-68754000D01*
X197508000Y-73961000D02*
X224940000Y-73961000D01*
X197508000Y-90852000D02*
X224940000Y-90852000D01*
X197508000Y-95932000D02*
X197635000Y-68754000D01*
X206084000Y-71481000D02*
X206084000Y-70151000D01*
X207414000Y-71481000D02*
X206084000Y-71481000D01*
X208684000Y-68821000D02*
X216364000Y-68821000D01*
X208684000Y-71481000D02*
X208684000Y-68821000D01*
X208684000Y-71481000D02*
X216364000Y-71481000D01*
X216364000Y-71481000D02*
X216364000Y-68821000D01*
X224940000Y-95932000D02*
X197508000Y-95932000D01*
X224940000Y-95932000D02*
X224940000Y-68754000D01*
D13*
%TO.C,G\u002A\u002A\u002A*%
G36*
X183737780Y-63160692D02*
G01*
X183724847Y-63173625D01*
X183711914Y-63160692D01*
X183724847Y-63147759D01*
X183737780Y-63160692D01*
G37*
G36*
X185769995Y-67707835D02*
G01*
X185804501Y-67742964D01*
X185822548Y-67764765D01*
X185891747Y-67862136D01*
X185964811Y-67986094D01*
X186032756Y-68119182D01*
X186086597Y-68243938D01*
X186115394Y-68333895D01*
X186146707Y-68576603D01*
X186132795Y-68827719D01*
X186107121Y-68958794D01*
X186081794Y-69050859D01*
X186053129Y-69121478D01*
X186011840Y-69186189D01*
X185948641Y-69260532D01*
X185888856Y-69324052D01*
X185783497Y-69429825D01*
X185698250Y-69501175D01*
X185620583Y-69543804D01*
X185537960Y-69563417D01*
X185437847Y-69565720D01*
X185367311Y-69561408D01*
X185228629Y-69546288D01*
X185128321Y-69522804D01*
X185053166Y-69486296D01*
X184989939Y-69432103D01*
X184984704Y-69426545D01*
X184925415Y-69362775D01*
X185032176Y-69119880D01*
X185077201Y-69020607D01*
X185136837Y-68893769D01*
X185207379Y-68746802D01*
X185285127Y-68587140D01*
X185366377Y-68422217D01*
X185447427Y-68259470D01*
X185524576Y-68106332D01*
X185594120Y-67970239D01*
X185652358Y-67858626D01*
X185695586Y-67778926D01*
X185719858Y-67738900D01*
X185746924Y-67707776D01*
X185769995Y-67707835D01*
G37*
G36*
X180892244Y-64382882D02*
G01*
X180892566Y-64397647D01*
X180898884Y-64443127D01*
X180916429Y-64529249D01*
X180943087Y-64646674D01*
X180976747Y-64786065D01*
X181011698Y-64924193D01*
X181061031Y-65114079D01*
X181098387Y-65260204D01*
X181123693Y-65369150D01*
X181136878Y-65447500D01*
X181137871Y-65501834D01*
X181126600Y-65538734D01*
X181102996Y-65564782D01*
X181066985Y-65586559D01*
X181018497Y-65610648D01*
X181004186Y-65617922D01*
X180899124Y-65675779D01*
X180790200Y-65741314D01*
X180730444Y-65780363D01*
X180652591Y-65828511D01*
X180608481Y-65842026D01*
X180595997Y-65832094D01*
X180586962Y-65798473D01*
X180567566Y-65722023D01*
X180539660Y-65610181D01*
X180505095Y-65470389D01*
X180465719Y-65310084D01*
X180439804Y-65204073D01*
X180398268Y-65034174D01*
X180360330Y-64879591D01*
X180327861Y-64747905D01*
X180302737Y-64646703D01*
X180286829Y-64583568D01*
X180282458Y-64567010D01*
X180297252Y-64528405D01*
X180363505Y-64488091D01*
X180481300Y-64446034D01*
X180638263Y-64405070D01*
X180730873Y-64382499D01*
X180807767Y-64361918D01*
X180847301Y-64349516D01*
X180881095Y-64346943D01*
X180892244Y-64382882D01*
G37*
G36*
X185287540Y-66663874D02*
G01*
X185292567Y-66671493D01*
X185308396Y-66714043D01*
X185331283Y-66793064D01*
X185357272Y-66894481D01*
X185368318Y-66941049D01*
X185416500Y-67123014D01*
X185466584Y-67258078D01*
X185520599Y-67351068D01*
X185556891Y-67389657D01*
X185579620Y-67412774D01*
X185585750Y-67438979D01*
X185572609Y-67480122D01*
X185537524Y-67548055D01*
X185510089Y-67597247D01*
X185473163Y-67665674D01*
X185417506Y-67772353D01*
X185347275Y-67909143D01*
X185266628Y-68067905D01*
X185179722Y-68240497D01*
X185096656Y-68406828D01*
X185001595Y-68597061D01*
X184926548Y-68744752D01*
X184869123Y-68853989D01*
X184826934Y-68928859D01*
X184797590Y-68973450D01*
X184778703Y-68991848D01*
X184767883Y-68988141D01*
X184764055Y-68975871D01*
X184758792Y-68917914D01*
X184755916Y-68824393D01*
X184755796Y-68711437D01*
X184756773Y-68657128D01*
X184759852Y-68559265D01*
X184765941Y-68482730D01*
X184778586Y-68415059D01*
X184801331Y-68343786D01*
X184837721Y-68256449D01*
X184891301Y-68140582D01*
X184922278Y-68075152D01*
X184982679Y-67942250D01*
X185036288Y-67813988D01*
X185078041Y-67703218D01*
X185102875Y-67622792D01*
X185105729Y-67609572D01*
X185145743Y-67378796D01*
X185172368Y-67189036D01*
X185186705Y-67031648D01*
X185189854Y-66949999D01*
X185197325Y-66846769D01*
X185214100Y-66757668D01*
X185236910Y-66691571D01*
X185262480Y-66657349D01*
X185287540Y-66663874D01*
G37*
G36*
X187409640Y-64589142D02*
G01*
X187410692Y-64596232D01*
X187431642Y-64619179D01*
X187449491Y-64622097D01*
X187483899Y-64636871D01*
X187488289Y-64649489D01*
X187504135Y-64664937D01*
X187514155Y-64660895D01*
X187535183Y-64668069D01*
X187540020Y-64692994D01*
X187556612Y-64751547D01*
X187572352Y-64773409D01*
X187582569Y-64809118D01*
X187590911Y-64888736D01*
X187597393Y-65004474D01*
X187602029Y-65148545D01*
X187604833Y-65313160D01*
X187605820Y-65490531D01*
X187605004Y-65672870D01*
X187602401Y-65852390D01*
X187598023Y-66021302D01*
X187591886Y-66171818D01*
X187584004Y-66296150D01*
X187574392Y-66386510D01*
X187569309Y-66414905D01*
X187519595Y-66596708D01*
X187460573Y-66731388D01*
X187388662Y-66823236D01*
X187300278Y-66876544D01*
X187191840Y-66895601D01*
X187167947Y-66895690D01*
X187043835Y-66887956D01*
X186958646Y-66867368D01*
X186900216Y-66829220D01*
X186860983Y-66776889D01*
X186835597Y-66724593D01*
X186826044Y-66671097D01*
X186830764Y-66597749D01*
X186840497Y-66532121D01*
X186854639Y-66434802D01*
X186864223Y-66349373D01*
X186866938Y-66303360D01*
X186866752Y-66238696D01*
X186829350Y-66303360D01*
X186795117Y-66365107D01*
X186773856Y-66406822D01*
X186743595Y-66464581D01*
X186698151Y-66543289D01*
X186644869Y-66631198D01*
X186591092Y-66716557D01*
X186544164Y-66787617D01*
X186511430Y-66832629D01*
X186501709Y-66842226D01*
X186480040Y-66871829D01*
X186479531Y-66877749D01*
X186466849Y-66910812D01*
X186433014Y-66975846D01*
X186384343Y-67060987D01*
X186363136Y-67096368D01*
X186292529Y-67221770D01*
X186254971Y-67312195D01*
X186249289Y-67371459D01*
X186269603Y-67400791D01*
X186296872Y-67436054D01*
X186336409Y-67511014D01*
X186384347Y-67616218D01*
X186436815Y-67742212D01*
X186489944Y-67879544D01*
X186539864Y-68018762D01*
X186582706Y-68150412D01*
X186598592Y-68204480D01*
X186616377Y-68288650D01*
X186633274Y-68404938D01*
X186646643Y-68533760D01*
X186650919Y-68592464D01*
X186657143Y-68718349D01*
X186656125Y-68811638D01*
X186645701Y-68891217D01*
X186623704Y-68975971D01*
X186597813Y-69055772D01*
X186558732Y-69161826D01*
X186517676Y-69257494D01*
X186482377Y-69325048D01*
X186476536Y-69333839D01*
X186440027Y-69391235D01*
X186389536Y-69478405D01*
X186334467Y-69578977D01*
X186320073Y-69606230D01*
X186236297Y-69760881D01*
X186163071Y-69878376D01*
X186090097Y-69968906D01*
X186007079Y-70042659D01*
X185903719Y-70109825D01*
X185769720Y-70180594D01*
X185710079Y-70209846D01*
X185587910Y-70267504D01*
X185497136Y-70304975D01*
X185423533Y-70326471D01*
X185352878Y-70336204D01*
X185275999Y-70338390D01*
X185170493Y-70332267D01*
X185071192Y-70316409D01*
X185014137Y-70299592D01*
X184930942Y-70269420D01*
X184877886Y-70268171D01*
X184839606Y-70300153D01*
X184806656Y-70357790D01*
X184723448Y-70518191D01*
X184634956Y-70679878D01*
X184546300Y-70834267D01*
X184462602Y-70972778D01*
X184388984Y-71086829D01*
X184330568Y-71167838D01*
X184307028Y-71194942D01*
X184232386Y-71258965D01*
X184167728Y-71280839D01*
X184099433Y-71260765D01*
X184014283Y-71199285D01*
X183936532Y-71130545D01*
X183886035Y-71070747D01*
X183861112Y-71008878D01*
X183860086Y-70933924D01*
X183881280Y-70834870D01*
X183923014Y-70700703D01*
X183933518Y-70669164D01*
X183986651Y-70516060D01*
X184048976Y-70344988D01*
X184110802Y-70182240D01*
X184141556Y-70104636D01*
X184319116Y-69598306D01*
X184385507Y-69355498D01*
X184393703Y-69257953D01*
X184375504Y-69128456D01*
X184368403Y-69096843D01*
X184348521Y-68990909D01*
X184330644Y-68857480D01*
X184317869Y-68720784D01*
X184315506Y-68682993D01*
X184310924Y-68552200D01*
X184315349Y-68449568D01*
X184331415Y-68351919D01*
X184361759Y-68236077D01*
X184369221Y-68210556D01*
X184399440Y-68100763D01*
X184422705Y-68002123D01*
X184435406Y-67930546D01*
X184436719Y-67913101D01*
X184447949Y-67846940D01*
X184475640Y-67762173D01*
X184491009Y-67725967D01*
X184544054Y-67606393D01*
X184581577Y-67505931D01*
X184606884Y-67409576D01*
X184623281Y-67302323D01*
X184634073Y-67169164D01*
X184640238Y-67048619D01*
X184647123Y-66906179D01*
X184654110Y-66805604D01*
X184663171Y-66737063D01*
X184676279Y-66690722D01*
X184695405Y-66656749D01*
X184722521Y-66625313D01*
X184725838Y-66621836D01*
X184809230Y-66510090D01*
X184849997Y-66387570D01*
X184852017Y-66241369D01*
X184848734Y-66212830D01*
X184828161Y-65963049D01*
X184829501Y-65711724D01*
X184851638Y-65471892D01*
X184893459Y-65256588D01*
X184943613Y-65102692D01*
X184978660Y-65029382D01*
X185012554Y-64993975D01*
X185057251Y-64984336D01*
X185060224Y-64984312D01*
X185122417Y-64996602D01*
X185156952Y-65018875D01*
X185176359Y-65055866D01*
X185208493Y-65131665D01*
X185249545Y-65236062D01*
X185295703Y-65358850D01*
X185343157Y-65489820D01*
X185388096Y-65618762D01*
X185426708Y-65735469D01*
X185438508Y-65773115D01*
X185469296Y-65866768D01*
X185501221Y-65954181D01*
X185513317Y-65983949D01*
X185537863Y-66055831D01*
X185548365Y-66115962D01*
X185548371Y-66116906D01*
X185560311Y-66166937D01*
X185591601Y-66247484D01*
X185635444Y-66344429D01*
X185685042Y-66443651D01*
X185733598Y-66531029D01*
X185774315Y-66592444D01*
X185781316Y-66600814D01*
X185816982Y-66656004D01*
X185854453Y-66736837D01*
X185869772Y-66778334D01*
X185893325Y-66855133D01*
X185898240Y-66904222D01*
X185883859Y-66946395D01*
X185863374Y-66980704D01*
X185814886Y-67057285D01*
X185779334Y-66971310D01*
X185738418Y-66896064D01*
X185689284Y-66834375D01*
X185688466Y-66833604D01*
X185653413Y-66782949D01*
X185611215Y-66695649D01*
X185567109Y-66585288D01*
X185526333Y-66465448D01*
X185494126Y-66349712D01*
X185483974Y-66303360D01*
X185468873Y-66243422D01*
X185440998Y-66147896D01*
X185404379Y-66030121D01*
X185364633Y-65908195D01*
X185321948Y-65775780D01*
X185283034Y-65646996D01*
X185252463Y-65537458D01*
X185235909Y-65468480D01*
X185214996Y-65376204D01*
X185192424Y-65294162D01*
X185182373Y-65264459D01*
X185155924Y-65195518D01*
X185066991Y-65247989D01*
X184978058Y-65300461D01*
X184990236Y-65510923D01*
X184999817Y-65625429D01*
X185013864Y-65733359D01*
X185029554Y-65813580D01*
X185031653Y-65821165D01*
X185043088Y-65916947D01*
X185027481Y-66010824D01*
X184989237Y-66083093D01*
X184969049Y-66101226D01*
X184957633Y-66134584D01*
X184950531Y-66210550D01*
X184948379Y-66320135D01*
X184949273Y-66381331D01*
X184950936Y-66528908D01*
X184946706Y-66631912D01*
X184935306Y-66697296D01*
X184915456Y-66732011D01*
X184885877Y-66743010D01*
X184882744Y-66743075D01*
X184855822Y-66751290D01*
X184858712Y-66760409D01*
X184858579Y-66791779D01*
X184834378Y-66841339D01*
X184808749Y-66904964D01*
X184796724Y-67002012D01*
X184795556Y-67094373D01*
X184785206Y-67349153D01*
X184743401Y-67585533D01*
X184666152Y-67819756D01*
X184562859Y-68042469D01*
X184545193Y-68102207D01*
X184539613Y-68160158D01*
X184531140Y-68222607D01*
X184514018Y-68258527D01*
X184505036Y-68291736D01*
X184497162Y-68364240D01*
X184490748Y-68463611D01*
X184486150Y-68577420D01*
X184483720Y-68693237D01*
X184483814Y-68798633D01*
X184486785Y-68881178D01*
X184492987Y-68928444D01*
X184494809Y-68932855D01*
X184504909Y-68969143D01*
X184516894Y-69038685D01*
X184523992Y-69092049D01*
X184541323Y-69192067D01*
X184566456Y-69287451D01*
X184578884Y-69321821D01*
X184592350Y-69356900D01*
X184598807Y-69389899D01*
X184596057Y-69429042D01*
X184581903Y-69482557D01*
X184554146Y-69558669D01*
X184510588Y-69665604D01*
X184449031Y-69811589D01*
X184446289Y-69818060D01*
X184386810Y-69958063D01*
X184331872Y-70086704D01*
X184285707Y-70194123D01*
X184252550Y-70270457D01*
X184239585Y-70299592D01*
X184216145Y-70353120D01*
X184178230Y-70442315D01*
X184130983Y-70554978D01*
X184079551Y-70678910D01*
X184077058Y-70684950D01*
X184024030Y-70816223D01*
X183989739Y-70909910D01*
X183971663Y-70975586D01*
X183967282Y-71022828D01*
X183974076Y-71061212D01*
X183976274Y-71067871D01*
X184007707Y-71123446D01*
X184052377Y-71135430D01*
X184054278Y-71135160D01*
X184082295Y-71119978D01*
X184117716Y-71079734D01*
X184162352Y-71011030D01*
X184218011Y-70910466D01*
X184286504Y-70774643D01*
X184369639Y-70600162D01*
X184469227Y-70383622D01*
X184551650Y-70200843D01*
X184627029Y-70033250D01*
X184684513Y-69907854D01*
X184727117Y-69819540D01*
X184757857Y-69763188D01*
X184779747Y-69733681D01*
X184795803Y-69725900D01*
X184809042Y-69734728D01*
X184818336Y-69748196D01*
X184903563Y-69841874D01*
X185026616Y-69918574D01*
X185175418Y-69974953D01*
X185337894Y-70007664D01*
X185501967Y-70013363D01*
X185655561Y-69988704D01*
X185670523Y-69984239D01*
X185832321Y-69906819D01*
X185979688Y-69782008D01*
X186110525Y-69612652D01*
X186222736Y-69401597D01*
X186314226Y-69151692D01*
X186333499Y-69083910D01*
X186387980Y-68865457D01*
X186422512Y-68684628D01*
X186438115Y-68531757D01*
X186435806Y-68397177D01*
X186418313Y-68279174D01*
X186387905Y-68174482D01*
X186336868Y-68039839D01*
X186271747Y-67889312D01*
X186199087Y-67736970D01*
X186125433Y-67596879D01*
X186057330Y-67483108D01*
X186029220Y-67442887D01*
X185987918Y-67383305D01*
X185964337Y-67340250D01*
X185962220Y-67332007D01*
X185975223Y-67304280D01*
X186011491Y-67239661D01*
X186066909Y-67145150D01*
X186137361Y-67027747D01*
X186218733Y-66894452D01*
X186233808Y-66869981D01*
X186316484Y-66735548D01*
X186389018Y-66616800D01*
X186447326Y-66520493D01*
X186487323Y-66453381D01*
X186504922Y-66422221D01*
X186505397Y-66420928D01*
X186517865Y-66396300D01*
X186550986Y-66338700D01*
X186598330Y-66259234D01*
X186613080Y-66234873D01*
X186671487Y-66134506D01*
X186742010Y-66007026D01*
X186814064Y-65871804D01*
X186856060Y-65790213D01*
X186991355Y-65522788D01*
X187009662Y-65655889D01*
X187016095Y-65745416D01*
X187016823Y-65864134D01*
X187011843Y-65989819D01*
X187009683Y-66020016D01*
X187005270Y-66143410D01*
X187008671Y-66283727D01*
X187018633Y-66427352D01*
X187033904Y-66560671D01*
X187053229Y-66670067D01*
X187075355Y-66741928D01*
X187076305Y-66743878D01*
X187114554Y-66774700D01*
X187169315Y-66788758D01*
X187228407Y-66780995D01*
X187275859Y-66739812D01*
X187296425Y-66710358D01*
X187336470Y-66643456D01*
X187368204Y-66576416D01*
X187392876Y-66501787D01*
X187411731Y-66412115D01*
X187426020Y-66299947D01*
X187436988Y-66157830D01*
X187445884Y-65978310D01*
X187453331Y-65773115D01*
X187461270Y-65514820D01*
X187466445Y-65304069D01*
X187468788Y-65136743D01*
X187468234Y-65008726D01*
X187464716Y-64915900D01*
X187458167Y-64854147D01*
X187448522Y-64819352D01*
X187437756Y-64807866D01*
X187421690Y-64783493D01*
X187424990Y-64775081D01*
X187429342Y-64755838D01*
X187404316Y-64755719D01*
X187345324Y-64776144D01*
X187247778Y-64818529D01*
X187173973Y-64852682D01*
X187054059Y-64907934D01*
X186929483Y-64963755D01*
X186823149Y-65009915D01*
X186802851Y-65018434D01*
X186654085Y-65086972D01*
X186484968Y-65175465D01*
X186316216Y-65272407D01*
X186168545Y-65366294D01*
X186136753Y-65388363D01*
X186067096Y-65435505D01*
X186013986Y-65467203D01*
X185993275Y-65475661D01*
X185965010Y-65492742D01*
X185914794Y-65536534D01*
X185877479Y-65573196D01*
X185824594Y-65638944D01*
X185783817Y-65710487D01*
X185759787Y-65775596D01*
X185757142Y-65822041D01*
X185777116Y-65837779D01*
X185794540Y-65856443D01*
X185791277Y-65874590D01*
X185800192Y-65899416D01*
X185846433Y-65905663D01*
X185919521Y-65894512D01*
X186008975Y-65867145D01*
X186065682Y-65843644D01*
X186161333Y-65802859D01*
X186259072Y-65765575D01*
X186285540Y-65756512D01*
X186377800Y-65719398D01*
X186472443Y-65671404D01*
X186487896Y-65662284D01*
X186552303Y-65627418D01*
X186599003Y-65610097D01*
X186609108Y-65609933D01*
X186608519Y-65634809D01*
X186587673Y-65694252D01*
X186550700Y-65777206D01*
X186533624Y-65811914D01*
X186466244Y-65933359D01*
X186400896Y-66015071D01*
X186326214Y-66062654D01*
X186230834Y-66081712D01*
X186103388Y-66077852D01*
X186014569Y-66067870D01*
X185904271Y-66052854D01*
X185832384Y-66038420D01*
X185785954Y-66018996D01*
X185752026Y-65989012D01*
X185717648Y-65942899D01*
X185714979Y-65939051D01*
X185646223Y-65839836D01*
X185705144Y-65715946D01*
X185780776Y-65595023D01*
X185895060Y-65461518D01*
X186039013Y-65323032D01*
X186203655Y-65187166D01*
X186380006Y-65061520D01*
X186559084Y-64953695D01*
X186673523Y-64896387D01*
X186807663Y-64835193D01*
X186905556Y-64790257D01*
X186978074Y-64756479D01*
X187036087Y-64728758D01*
X187090465Y-64701994D01*
X187129671Y-64682363D01*
X187213431Y-64646943D01*
X187290295Y-64625274D01*
X187318723Y-64622097D01*
X187364554Y-64614202D01*
X187371894Y-64596232D01*
X187373945Y-64572397D01*
X187383300Y-64570366D01*
X187409640Y-64589142D01*
G37*
G36*
X190896887Y-65346361D02*
G01*
X190948990Y-65366423D01*
X190982874Y-65382498D01*
X191089786Y-65458957D01*
X191189300Y-65577073D01*
X191275168Y-65726786D01*
X191341141Y-65898033D01*
X191367545Y-66001885D01*
X191399117Y-66112401D01*
X191448966Y-66198877D01*
X191502103Y-66259508D01*
X191598668Y-66373092D01*
X191662566Y-66487551D01*
X191701182Y-66620057D01*
X191720242Y-66766740D01*
X191730216Y-66871374D01*
X191741283Y-66935531D01*
X191757335Y-66970391D01*
X191782263Y-66987133D01*
X191798665Y-66992052D01*
X191845291Y-67012019D01*
X191859572Y-67030400D01*
X191875562Y-67050578D01*
X191878971Y-67050399D01*
X191935735Y-67052615D01*
X191987831Y-67084149D01*
X192045865Y-67152661D01*
X192071193Y-67189256D01*
X192182409Y-67395160D01*
X192241976Y-67603302D01*
X192249879Y-67813529D01*
X192206101Y-68025688D01*
X192166385Y-68128939D01*
X192124356Y-68208876D01*
X192066072Y-68300533D01*
X191999533Y-68393511D01*
X191932740Y-68477413D01*
X191873694Y-68541840D01*
X191830395Y-68576395D01*
X191819682Y-68579531D01*
X191786069Y-68597006D01*
X191731949Y-68641964D01*
X191683877Y-68689460D01*
X191637668Y-68725010D01*
X191608101Y-68734724D01*
X191577500Y-68747179D01*
X191575051Y-68754708D01*
X191554242Y-68777867D01*
X191502053Y-68812049D01*
X191478055Y-68825158D01*
X191393393Y-68872676D01*
X191312891Y-68923066D01*
X191303462Y-68929504D01*
X191227923Y-68976731D01*
X191139906Y-69024937D01*
X191122403Y-69033647D01*
X191056721Y-69067560D01*
X191013280Y-69093707D01*
X191006008Y-69099823D01*
X190973452Y-69119350D01*
X190935333Y-69133753D01*
X190885031Y-69168657D01*
X190840917Y-69229097D01*
X190838380Y-69234235D01*
X190789942Y-69310123D01*
X190712565Y-69403722D01*
X190618810Y-69501858D01*
X190521235Y-69591353D01*
X190435302Y-69657123D01*
X190375270Y-69700695D01*
X190338706Y-69734645D01*
X190333503Y-69744339D01*
X190310281Y-69763784D01*
X190250948Y-69783692D01*
X190171005Y-69801007D01*
X190085952Y-69812670D01*
X190011290Y-69815626D01*
X189984480Y-69813183D01*
X189938236Y-69809327D01*
X189899068Y-69820042D01*
X189855287Y-69852615D01*
X189795208Y-69914337D01*
X189760156Y-69953101D01*
X189689261Y-70024581D01*
X189600386Y-70103299D01*
X189503766Y-70181469D01*
X189409638Y-70251306D01*
X189328239Y-70305026D01*
X189269803Y-70334844D01*
X189253552Y-70338390D01*
X189215513Y-70354926D01*
X189167317Y-70392848D01*
X189128820Y-70434634D01*
X189118250Y-70457819D01*
X189105370Y-70503769D01*
X189070074Y-70581211D01*
X189018866Y-70678746D01*
X188958252Y-70784976D01*
X188894734Y-70888500D01*
X188834817Y-70977920D01*
X188785040Y-71041798D01*
X188681867Y-71141401D01*
X188569484Y-71225018D01*
X188461009Y-71284225D01*
X188369559Y-71310593D01*
X188366190Y-71310863D01*
X188293803Y-71319664D01*
X188248216Y-71329105D01*
X188189621Y-71330307D01*
X188121996Y-71314894D01*
X188039080Y-71260874D01*
X187956325Y-71161024D01*
X187877138Y-71021144D01*
X187804923Y-70847034D01*
X187755490Y-70690708D01*
X187724861Y-70592160D01*
X187678752Y-70458318D01*
X187621679Y-70301600D01*
X187558156Y-70134424D01*
X187496829Y-69979404D01*
X187375708Y-69675732D01*
X187274805Y-69412779D01*
X187192400Y-69184414D01*
X187126775Y-68984509D01*
X187076210Y-68806931D01*
X187038987Y-68645551D01*
X187013386Y-68494239D01*
X186997689Y-68346863D01*
X186990176Y-68197294D01*
X186989575Y-68170486D01*
X186990204Y-68117865D01*
X187260613Y-68117865D01*
X187269380Y-68180263D01*
X187292196Y-68269315D01*
X187312786Y-68339903D01*
X187346238Y-68452578D01*
X187389088Y-68597172D01*
X187436096Y-68755988D01*
X187482020Y-68911330D01*
X187487156Y-68928716D01*
X187541017Y-69110633D01*
X187582669Y-69250157D01*
X187614342Y-69354571D01*
X187638271Y-69431158D01*
X187656685Y-69487200D01*
X187669488Y-69523625D01*
X187688331Y-69582129D01*
X187711041Y-69661204D01*
X187715784Y-69678818D01*
X187733381Y-69740341D01*
X187763127Y-69839274D01*
X187801396Y-69963760D01*
X187844564Y-70101942D01*
X187862055Y-70157331D01*
X187910810Y-70313908D01*
X187960236Y-70477246D01*
X188005126Y-70629855D01*
X188040274Y-70754242D01*
X188045659Y-70774130D01*
X188090577Y-70934814D01*
X188127945Y-71050808D01*
X188160461Y-71128130D01*
X188190821Y-71172797D01*
X188221721Y-71190824D01*
X188232919Y-71191955D01*
X188281254Y-71170931D01*
X188311673Y-71133757D01*
X188346542Y-71069436D01*
X188387642Y-70997963D01*
X188509452Y-70793508D01*
X188608289Y-70628886D01*
X188687188Y-70499211D01*
X188749185Y-70399597D01*
X188797315Y-70325159D01*
X188834612Y-70271010D01*
X188860692Y-70236501D01*
X188903315Y-70173453D01*
X188958444Y-70078227D01*
X189017606Y-69965932D01*
X189052863Y-69893800D01*
X189110909Y-69765218D01*
X189144412Y-69670525D01*
X189154130Y-69598486D01*
X189140816Y-69537865D01*
X189105228Y-69477428D01*
X189082845Y-69448172D01*
X189025140Y-69375803D01*
X188961552Y-69445869D01*
X188832019Y-69590708D01*
X188728781Y-69712497D01*
X188641718Y-69824932D01*
X188560714Y-69941709D01*
X188475650Y-70076524D01*
X188391138Y-70218006D01*
X188328842Y-70318202D01*
X188285398Y-70372138D01*
X188257832Y-70380457D01*
X188243169Y-70343801D01*
X188238433Y-70262810D01*
X188238391Y-70250954D01*
X188230514Y-70195022D01*
X188209016Y-70102578D01*
X188177090Y-69986032D01*
X188137934Y-69857796D01*
X188134029Y-69845687D01*
X188084066Y-69686680D01*
X188030709Y-69508995D01*
X187981222Y-69337184D01*
X187950807Y-69226170D01*
X187860588Y-68894517D01*
X187777042Y-68605039D01*
X187700647Y-68359113D01*
X187631882Y-68158117D01*
X187571227Y-68003428D01*
X187519160Y-67896425D01*
X187476159Y-67838485D01*
X187466035Y-67831362D01*
X187412348Y-67828809D01*
X187356707Y-67871796D01*
X187304783Y-67954695D01*
X187279397Y-68016584D01*
X187264438Y-68068009D01*
X187260613Y-68117865D01*
X186990204Y-68117865D01*
X186992198Y-67951087D01*
X187011484Y-67776956D01*
X187050857Y-67643349D01*
X187113745Y-67545524D01*
X187203572Y-67478740D01*
X187323766Y-67438254D01*
X187477752Y-67419323D01*
X187533880Y-67417065D01*
X187573867Y-67404495D01*
X187602642Y-67371397D01*
X188445316Y-67371397D01*
X188456222Y-67447399D01*
X188486715Y-67560311D01*
X188533453Y-67700671D01*
X188593096Y-67859017D01*
X188662303Y-68025885D01*
X188726858Y-68168856D01*
X188766073Y-68254095D01*
X188794739Y-68319969D01*
X188807278Y-68353604D01*
X188807434Y-68354852D01*
X188817730Y-68383259D01*
X188845321Y-68447106D01*
X188885262Y-68535126D01*
X188908219Y-68584468D01*
X188957809Y-68694164D01*
X189018408Y-68834141D01*
X189082361Y-68986433D01*
X189142012Y-69133074D01*
X189142229Y-69133618D01*
X189201170Y-69281561D01*
X189244399Y-69387453D01*
X189275887Y-69457086D01*
X189299604Y-69496251D01*
X189319520Y-69510737D01*
X189339606Y-69506336D01*
X189363831Y-69488838D01*
X189378031Y-69477537D01*
X189425948Y-69439806D01*
X189487381Y-69391068D01*
X189491399Y-69387869D01*
X189564415Y-69329709D01*
X189494348Y-69116280D01*
X189452891Y-68995646D01*
X189407760Y-68873091D01*
X189367783Y-68772469D01*
X189362711Y-68760590D01*
X189326319Y-68676005D01*
X189277175Y-68561106D01*
X189222679Y-68433221D01*
X189185943Y-68346741D01*
X189124474Y-68203032D01*
X189053445Y-68038896D01*
X188978820Y-67867944D01*
X188906566Y-67703786D01*
X188842647Y-67560034D01*
X188793109Y-67450469D01*
X188767936Y-67391754D01*
X188755881Y-67356039D01*
X188755702Y-67354211D01*
X188746005Y-67324563D01*
X188720760Y-67262141D01*
X188690541Y-67192117D01*
X188625380Y-67044775D01*
X188567680Y-67106534D01*
X188482506Y-67223678D01*
X188446774Y-67341420D01*
X188445316Y-67371397D01*
X187602642Y-67371397D01*
X187610406Y-67362467D01*
X187651853Y-67281112D01*
X187654993Y-67274055D01*
X187741409Y-67106530D01*
X187846183Y-66947497D01*
X187885907Y-66898867D01*
X189005030Y-66898867D01*
X189028039Y-67010410D01*
X189069805Y-67074496D01*
X189136904Y-67156159D01*
X189202724Y-67250783D01*
X189269664Y-67363325D01*
X189340125Y-67498740D01*
X189416506Y-67661987D01*
X189501208Y-67858021D01*
X189596630Y-68091800D01*
X189705173Y-68368279D01*
X189740043Y-68458703D01*
X189782277Y-68557171D01*
X189829367Y-68650303D01*
X189857976Y-68697866D01*
X189903633Y-68771996D01*
X189956329Y-68867236D01*
X189987671Y-68928622D01*
X190026997Y-69003387D01*
X190059310Y-69054942D01*
X190075487Y-69070977D01*
X190104543Y-69056083D01*
X190158494Y-69018111D01*
X190194152Y-68990437D01*
X190251398Y-68938474D01*
X190285570Y-68895522D01*
X190290151Y-68880508D01*
X190277939Y-68841189D01*
X190250182Y-68767086D01*
X190211964Y-68670858D01*
X190168370Y-68565160D01*
X190124484Y-68462650D01*
X190101699Y-68411405D01*
X190047095Y-68282686D01*
X190017109Y-68186069D01*
X190010218Y-68109015D01*
X190024900Y-68038983D01*
X190049640Y-67982563D01*
X190091714Y-67909899D01*
X190154798Y-67813112D01*
X190227928Y-67708743D01*
X190259338Y-67666177D01*
X190324974Y-67572917D01*
X190376322Y-67488780D01*
X190406294Y-67425971D01*
X190411100Y-67404775D01*
X190396890Y-67357389D01*
X190360877Y-67290081D01*
X190312984Y-67217239D01*
X190263135Y-67153251D01*
X190221252Y-67112506D01*
X190204481Y-67105193D01*
X190177523Y-67123524D01*
X190127827Y-67171898D01*
X190065489Y-67240384D01*
X190056939Y-67250299D01*
X189983459Y-67335859D01*
X189912541Y-67418131D01*
X189861869Y-67476623D01*
X189817634Y-67531594D01*
X189792720Y-67570626D01*
X189790739Y-67577240D01*
X189770877Y-67596456D01*
X189767781Y-67596639D01*
X189749004Y-67574422D01*
X189714819Y-67514019D01*
X189670178Y-67424798D01*
X189622709Y-67322137D01*
X189568730Y-67199472D01*
X189535495Y-67108078D01*
X189525792Y-67036607D01*
X189542412Y-66973713D01*
X189588145Y-66908048D01*
X189665782Y-66828264D01*
X189767616Y-66732795D01*
X189856649Y-66648541D01*
X189914697Y-66587596D01*
X189949239Y-66538675D01*
X189967756Y-66490495D01*
X189977725Y-66431772D01*
X189979942Y-66412454D01*
X189984965Y-66332458D01*
X189978738Y-66292974D01*
X189970265Y-66291119D01*
X189949212Y-66284412D01*
X189945519Y-66264996D01*
X189932332Y-66222198D01*
X190127034Y-66222198D01*
X190132573Y-66285771D01*
X190149061Y-66341301D01*
X190162503Y-66361455D01*
X190184339Y-66391772D01*
X190218759Y-66452766D01*
X190267456Y-66547832D01*
X190332126Y-66680363D01*
X190414462Y-66853753D01*
X190505645Y-67048781D01*
X190544107Y-67152800D01*
X190570822Y-67264583D01*
X190577265Y-67317518D01*
X190590350Y-67412715D01*
X190619296Y-67471756D01*
X190638799Y-67490325D01*
X190675863Y-67539533D01*
X190719455Y-67630726D01*
X190766321Y-67755090D01*
X190813208Y-67903813D01*
X190856861Y-68068082D01*
X190865397Y-68104090D01*
X190897416Y-68220080D01*
X190934180Y-68318874D01*
X190971011Y-68390050D01*
X191003234Y-68423186D01*
X191009100Y-68424337D01*
X191038946Y-68412468D01*
X191100503Y-68381276D01*
X191180732Y-68337385D01*
X191184708Y-68335141D01*
X191295531Y-68268852D01*
X191415215Y-68191794D01*
X191488858Y-68141149D01*
X191567066Y-68088541D01*
X191632035Y-68050924D01*
X191669833Y-68036356D01*
X191670055Y-68036354D01*
X191712406Y-68019734D01*
X191777836Y-67977055D01*
X191853096Y-67919083D01*
X191924934Y-67856587D01*
X191980100Y-67800334D01*
X192004254Y-67764765D01*
X192021447Y-67663272D01*
X192007598Y-67558175D01*
X191966602Y-67471075D01*
X191947442Y-67449648D01*
X191898830Y-67409083D01*
X191866476Y-67390044D01*
X191864706Y-67389838D01*
X191835207Y-67406420D01*
X191772143Y-67456612D01*
X191674392Y-67541351D01*
X191554845Y-67648825D01*
X191499300Y-67695679D01*
X191459120Y-67723052D01*
X191450664Y-67725967D01*
X191419657Y-67743162D01*
X191384850Y-67781516D01*
X191361715Y-67821184D01*
X191361629Y-67840176D01*
X191355174Y-67853304D01*
X191338009Y-67855295D01*
X191298547Y-67876031D01*
X191264664Y-67919959D01*
X191232772Y-67966924D01*
X191208562Y-67984623D01*
X191189681Y-68005734D01*
X191187067Y-68024947D01*
X191179430Y-68055625D01*
X191161460Y-68046445D01*
X191140572Y-68006141D01*
X191125848Y-67952829D01*
X191112336Y-67895715D01*
X191087326Y-67801885D01*
X191054327Y-67684131D01*
X191016851Y-67555242D01*
X191015040Y-67549129D01*
X190920400Y-67230030D01*
X191055045Y-67102947D01*
X191124845Y-67040289D01*
X191181920Y-66994896D01*
X191214645Y-66975962D01*
X191215770Y-66975865D01*
X191229995Y-66959941D01*
X191225865Y-66949999D01*
X191222990Y-66907261D01*
X191229489Y-66892404D01*
X191247097Y-66843463D01*
X191256862Y-66777943D01*
X191257901Y-66714731D01*
X191249331Y-66672712D01*
X191240112Y-66665478D01*
X191215524Y-66644758D01*
X191212933Y-66629447D01*
X191192350Y-66589527D01*
X191144742Y-66574377D01*
X191091317Y-66590071D01*
X191086793Y-66593324D01*
X191048380Y-66627074D01*
X190986678Y-66685688D01*
X190914497Y-66756975D01*
X190908715Y-66762798D01*
X190772623Y-66900072D01*
X190748042Y-66835418D01*
X190725543Y-66782435D01*
X190687405Y-66698590D01*
X190640761Y-66599472D01*
X190626323Y-66569394D01*
X190579642Y-66472086D01*
X190540165Y-66388814D01*
X190514481Y-66333513D01*
X190510125Y-66323706D01*
X190509891Y-66295727D01*
X190535781Y-66259984D01*
X190593910Y-66210255D01*
X190690339Y-66140356D01*
X190782417Y-66077603D01*
X190862199Y-66025931D01*
X190917715Y-65992972D01*
X190932415Y-65985973D01*
X190966384Y-65953577D01*
X191002585Y-65889762D01*
X191034536Y-65811558D01*
X191055755Y-65735994D01*
X191059761Y-65680102D01*
X191054224Y-65665909D01*
X191036464Y-65616989D01*
X191037432Y-65601245D01*
X191020834Y-65571749D01*
X190973676Y-65558006D01*
X190922378Y-65560627D01*
X190902546Y-65577406D01*
X190882369Y-65603398D01*
X190872250Y-65604989D01*
X190829248Y-65620663D01*
X190801120Y-65640650D01*
X190760568Y-65668497D01*
X190687190Y-65712369D01*
X190594112Y-65764539D01*
X190553360Y-65786503D01*
X190460914Y-65837569D01*
X190387707Y-65881469D01*
X190344590Y-65911534D01*
X190337814Y-65918969D01*
X190308135Y-65938518D01*
X190286083Y-65941444D01*
X190246793Y-65963606D01*
X190208256Y-66016802D01*
X190182573Y-66081594D01*
X190178309Y-66114525D01*
X190162514Y-66145497D01*
X190152444Y-66148166D01*
X190133354Y-66169893D01*
X190127034Y-66222198D01*
X189932332Y-66222198D01*
X189928777Y-66210659D01*
X189913633Y-66189445D01*
X189894245Y-66181189D01*
X189860232Y-66188692D01*
X189805557Y-66215112D01*
X189724181Y-66263613D01*
X189610069Y-66337353D01*
X189532116Y-66389178D01*
X189364649Y-66502440D01*
X189236144Y-66593110D01*
X189141662Y-66665965D01*
X189076263Y-66725780D01*
X189035010Y-66777331D01*
X189012963Y-66825393D01*
X189005185Y-66874741D01*
X189005030Y-66898867D01*
X187885907Y-66898867D01*
X187961182Y-66806715D01*
X188078272Y-66693945D01*
X188189320Y-66618949D01*
X188208203Y-66610144D01*
X188319076Y-66576100D01*
X188433667Y-66562852D01*
X188532142Y-66571800D01*
X188568528Y-66584723D01*
X188679029Y-66636206D01*
X188766387Y-66668200D01*
X188822137Y-66677898D01*
X188835694Y-66673331D01*
X188856792Y-66641709D01*
X188893996Y-66576716D01*
X188940051Y-66491133D01*
X188950300Y-66471486D01*
X189035575Y-66330605D01*
X189128735Y-66217171D01*
X189222927Y-66137807D01*
X189311299Y-66099137D01*
X189338237Y-66096435D01*
X189389849Y-66083012D01*
X189435584Y-66059451D01*
X189488242Y-66039785D01*
X189575414Y-66021417D01*
X189679927Y-66007815D01*
X189699796Y-66006097D01*
X189826502Y-65995003D01*
X189911913Y-65982914D01*
X189966374Y-65965830D01*
X190000235Y-65939750D01*
X190023843Y-65900673D01*
X190034301Y-65876770D01*
X190074338Y-65811790D01*
X190143393Y-65727862D01*
X190229301Y-65637341D01*
X190319894Y-65552583D01*
X190403006Y-65485944D01*
X190445687Y-65459015D01*
X190508821Y-65432396D01*
X190601348Y-65401070D01*
X190694542Y-65374201D01*
X190787782Y-65350771D01*
X190849191Y-65341317D01*
X190896887Y-65346361D01*
G37*
G36*
X183811920Y-62674984D02*
G01*
X183874197Y-62683857D01*
X183925432Y-62701547D01*
X183979182Y-62730542D01*
X184009368Y-62748907D01*
X184124843Y-62842983D01*
X184211180Y-62967594D01*
X184271308Y-63128432D01*
X184307879Y-63328818D01*
X184318372Y-63455652D01*
X184322178Y-63586637D01*
X184318625Y-63695776D01*
X184317631Y-63706572D01*
X184311776Y-63811553D01*
X184321634Y-63887501D01*
X184348139Y-63952295D01*
X184413505Y-64088147D01*
X184477742Y-64243300D01*
X184534353Y-64400167D01*
X184576836Y-64541158D01*
X184594205Y-64618227D01*
X184615546Y-64816428D01*
X184611674Y-65014179D01*
X184583923Y-65196200D01*
X184533628Y-65347212D01*
X184529865Y-65355072D01*
X184457039Y-65473364D01*
X184367269Y-65573598D01*
X184272549Y-65643898D01*
X184213852Y-65667955D01*
X184140095Y-65689775D01*
X184090868Y-65706968D01*
X184027826Y-65730936D01*
X184142050Y-66165875D01*
X184183059Y-66329687D01*
X184221287Y-66496385D01*
X184253576Y-66651163D01*
X184276764Y-66779219D01*
X184284580Y-66833604D01*
X184299433Y-66987536D01*
X184306524Y-67133714D01*
X184305985Y-67261989D01*
X184297946Y-67362213D01*
X184282538Y-67424236D01*
X184276845Y-67433467D01*
X184236359Y-67467192D01*
X184160386Y-67518087D01*
X184059635Y-67580041D01*
X183944814Y-67646941D01*
X183826632Y-67712675D01*
X183715798Y-67771130D01*
X183623020Y-67816196D01*
X183564603Y-67839994D01*
X183442076Y-67899855D01*
X183329029Y-67989507D01*
X183239647Y-68095470D01*
X183190631Y-68195374D01*
X183129287Y-68318854D01*
X183027612Y-68412329D01*
X182922224Y-68464812D01*
X182856713Y-68488100D01*
X182806117Y-68497085D01*
X182751843Y-68491152D01*
X182675303Y-68469686D01*
X182629672Y-68455127D01*
X182450970Y-68416661D01*
X182293242Y-68424172D01*
X182152941Y-68478089D01*
X182091514Y-68519972D01*
X181971554Y-68604574D01*
X181856429Y-68660547D01*
X181722023Y-68698668D01*
X181667471Y-68709510D01*
X181546539Y-68735031D01*
X181412660Y-68768038D01*
X181331444Y-68790671D01*
X181235942Y-68822413D01*
X181172342Y-68856178D01*
X181122010Y-68905030D01*
X181073433Y-68971548D01*
X180967453Y-69107034D01*
X180869098Y-69191597D01*
X180778117Y-69225445D01*
X180763409Y-69226170D01*
X180707473Y-69234376D01*
X180681192Y-69252452D01*
X180653207Y-69264626D01*
X180585039Y-69275826D01*
X180488233Y-69284475D01*
X180422685Y-69287732D01*
X180305951Y-69292800D01*
X180224296Y-69301196D01*
X180161093Y-69317818D01*
X180099715Y-69347565D01*
X180023534Y-69395335D01*
X179996042Y-69413429D01*
X179840525Y-69511837D01*
X179715561Y-69579547D01*
X179612170Y-69619223D01*
X179521372Y-69633534D01*
X179434186Y-69625144D01*
X179358106Y-69602841D01*
X179294249Y-69578476D01*
X179255560Y-69561154D01*
X179251451Y-69558343D01*
X179238663Y-69528371D01*
X179213109Y-69456225D01*
X179177106Y-69349215D01*
X179132967Y-69214653D01*
X179083008Y-69059847D01*
X179029543Y-68892109D01*
X178974887Y-68718749D01*
X178921356Y-68547078D01*
X178871264Y-68384406D01*
X178826926Y-68238042D01*
X178790656Y-68115299D01*
X178764771Y-68023485D01*
X178761309Y-68010488D01*
X178734158Y-67911667D01*
X178706445Y-67817654D01*
X178693745Y-67777698D01*
X178670976Y-67708671D01*
X178654885Y-67658643D01*
X178653642Y-67654616D01*
X178628969Y-67652517D01*
X178568646Y-67682633D01*
X178476015Y-67743185D01*
X178442529Y-67766945D01*
X178281061Y-67878500D01*
X178148572Y-67958337D01*
X178036608Y-68010444D01*
X177936719Y-68038813D01*
X177848421Y-68047373D01*
X177759683Y-68042286D01*
X177694121Y-68018242D01*
X177640662Y-67966511D01*
X177588234Y-67878363D01*
X177559865Y-67819874D01*
X177500132Y-67652947D01*
X177490134Y-67540855D01*
X177740950Y-67540855D01*
X177748821Y-67604057D01*
X177777164Y-67639553D01*
X177777362Y-67639630D01*
X177824179Y-67638414D01*
X177894224Y-67616885D01*
X177926549Y-67602499D01*
X178017382Y-67559173D01*
X178121726Y-67511178D01*
X178163747Y-67492387D01*
X178293155Y-67433837D01*
X178429531Y-67369786D01*
X178563438Y-67304927D01*
X178685441Y-67243957D01*
X178786101Y-67191568D01*
X178855983Y-67152457D01*
X178882128Y-67134998D01*
X178927883Y-67112327D01*
X178950055Y-67120030D01*
X178965372Y-67155992D01*
X178991438Y-67242033D01*
X179028126Y-67377659D01*
X179075309Y-67562374D01*
X179132860Y-67795683D01*
X179200649Y-68077090D01*
X179249319Y-68282077D01*
X179282765Y-68419795D01*
X179314096Y-68541844D01*
X179340633Y-68638291D01*
X179359698Y-68699203D01*
X179365596Y-68713240D01*
X179383086Y-68757359D01*
X179408106Y-68836994D01*
X179436113Y-68937360D01*
X179445080Y-68971896D01*
X179487787Y-69117299D01*
X179530720Y-69214085D01*
X179576552Y-69265309D01*
X179627958Y-69274026D01*
X179684590Y-69245570D01*
X179710336Y-69206109D01*
X179736609Y-69135672D01*
X179758666Y-69052830D01*
X179771768Y-68976153D01*
X179771173Y-68924210D01*
X179768384Y-68917354D01*
X179756343Y-68881036D01*
X179742527Y-68817617D01*
X179741183Y-68810144D01*
X179725336Y-68731372D01*
X179699890Y-68617101D01*
X179668332Y-68481882D01*
X179634150Y-68340266D01*
X179600830Y-68206801D01*
X179571861Y-68096039D01*
X179558820Y-68049287D01*
X179543555Y-67992625D01*
X179519942Y-67900149D01*
X179490151Y-67780828D01*
X179456353Y-67643627D01*
X179420720Y-67497516D01*
X179385422Y-67351460D01*
X179352631Y-67214428D01*
X179324519Y-67095387D01*
X179303255Y-67003304D01*
X179291013Y-66947147D01*
X179288900Y-66934481D01*
X179310408Y-66917518D01*
X179365406Y-66887429D01*
X179439604Y-66850921D01*
X179518714Y-66814700D01*
X179588445Y-66785473D01*
X179634510Y-66769945D01*
X179641584Y-66768961D01*
X179662106Y-66792021D01*
X179689565Y-66853018D01*
X179718591Y-66939642D01*
X179723416Y-66956466D01*
X179749266Y-67047750D01*
X179785668Y-67174811D01*
X179828630Y-67323781D01*
X179874158Y-67480792D01*
X179896595Y-67557840D01*
X179939030Y-67704775D01*
X179977916Y-67842097D01*
X180010173Y-67958734D01*
X180032725Y-68043615D01*
X180040420Y-68075152D01*
X180096558Y-68322472D01*
X180144217Y-68523127D01*
X180184573Y-68681273D01*
X180218806Y-68801065D01*
X180248093Y-68886661D01*
X180273612Y-68942215D01*
X180293955Y-68969617D01*
X180332469Y-68997907D01*
X180349356Y-68995283D01*
X180349389Y-68994388D01*
X180370323Y-68970552D01*
X180388187Y-68967515D01*
X180422581Y-68951877D01*
X180426986Y-68938482D01*
X180439495Y-68924813D01*
X180465784Y-68941649D01*
X180496407Y-68959782D01*
X180504551Y-68936401D01*
X180504582Y-68932695D01*
X180520636Y-68903694D01*
X180543381Y-68906430D01*
X180577364Y-68908309D01*
X180583306Y-68899152D01*
X180588556Y-68862125D01*
X180600492Y-68794505D01*
X180606913Y-68760590D01*
X180612721Y-68728424D01*
X180616072Y-68697254D01*
X180615809Y-68661764D01*
X180610776Y-68616641D01*
X180599816Y-68556569D01*
X180581772Y-68476232D01*
X180555488Y-68370316D01*
X180519806Y-68233506D01*
X180473571Y-68060486D01*
X180415624Y-67845942D01*
X180376117Y-67700101D01*
X180215070Y-67137078D01*
X180104167Y-66780125D01*
X180073350Y-66673225D01*
X180064689Y-66601627D01*
X180080445Y-66552881D01*
X180122878Y-66514536D01*
X180155993Y-66494710D01*
X180204755Y-66440825D01*
X180212819Y-66359238D01*
X180179777Y-66254696D01*
X180177097Y-66249071D01*
X180134768Y-66180537D01*
X180085699Y-66149137D01*
X180052619Y-66142968D01*
X180013713Y-66135459D01*
X179984874Y-66115448D01*
X179959142Y-66072753D01*
X179929554Y-65997190D01*
X179905862Y-65928309D01*
X179867181Y-65809645D01*
X179821921Y-65664660D01*
X179777360Y-65516873D01*
X179757766Y-65449796D01*
X179708284Y-65277494D01*
X179656489Y-65096152D01*
X179604966Y-64914918D01*
X179556301Y-64742940D01*
X179513080Y-64589366D01*
X179489998Y-64506709D01*
X179907747Y-64506709D01*
X179907868Y-64572975D01*
X179912109Y-64641898D01*
X179921746Y-64719456D01*
X179938052Y-64811632D01*
X179962302Y-64924405D01*
X179995770Y-65063755D01*
X180039730Y-65235662D01*
X180095456Y-65446108D01*
X180154934Y-65666800D01*
X180204898Y-65853909D01*
X180262672Y-66074595D01*
X180323951Y-66312143D01*
X180384430Y-66549837D01*
X180439806Y-66770961D01*
X180452675Y-66823023D01*
X180517316Y-67084515D01*
X180572249Y-67304683D01*
X180619785Y-67492521D01*
X180662233Y-67657020D01*
X180701905Y-67807174D01*
X180741109Y-67951974D01*
X180764351Y-68036354D01*
X180794903Y-68153545D01*
X180824536Y-68278253D01*
X180840637Y-68353190D01*
X180873496Y-68472859D01*
X180915562Y-68543958D01*
X180968916Y-68569156D01*
X181005220Y-68563990D01*
X181056782Y-68539461D01*
X181077199Y-68521001D01*
X181090234Y-68481550D01*
X181104249Y-68411238D01*
X181109878Y-68373388D01*
X181113980Y-68326190D01*
X181113716Y-68271334D01*
X181108173Y-68203677D01*
X181096438Y-68118073D01*
X181077600Y-68009380D01*
X181050744Y-67872451D01*
X181014960Y-67702144D01*
X180969333Y-67493314D01*
X180912951Y-67240815D01*
X180894060Y-67156924D01*
X180864339Y-67023698D01*
X180831054Y-66872213D01*
X180797161Y-66716148D01*
X180765612Y-66569184D01*
X180739363Y-66445003D01*
X180721366Y-66357284D01*
X180721047Y-66355674D01*
X180707144Y-66302543D01*
X180696494Y-66279725D01*
X180713064Y-66263382D01*
X180768895Y-66227747D01*
X180857038Y-66176781D01*
X180970543Y-66114444D01*
X181102460Y-66044696D01*
X181170419Y-66009675D01*
X181214505Y-65980382D01*
X181228617Y-65960641D01*
X181248609Y-65941686D01*
X181253962Y-65941242D01*
X181267373Y-65950523D01*
X181283612Y-65982638D01*
X181304820Y-66043991D01*
X181333140Y-66140989D01*
X181370712Y-66280037D01*
X181383666Y-66329225D01*
X181404563Y-66407409D01*
X181431601Y-66506709D01*
X181446847Y-66562016D01*
X181468051Y-66642834D01*
X181496938Y-66758841D01*
X181529773Y-66894768D01*
X181562816Y-67035352D01*
X181564013Y-67040529D01*
X181628237Y-67318037D01*
X181682165Y-67549502D01*
X181727114Y-67739289D01*
X181764400Y-67891765D01*
X181795338Y-68011297D01*
X181821245Y-68102252D01*
X181843438Y-68168997D01*
X181863232Y-68215899D01*
X181881943Y-68247323D01*
X181900888Y-68267638D01*
X181921383Y-68281210D01*
X181940792Y-68290609D01*
X181991878Y-68305759D01*
X182004786Y-68292928D01*
X182020409Y-68277464D01*
X182028864Y-68280972D01*
X182053890Y-68284751D01*
X182072199Y-68255026D01*
X182086780Y-68184681D01*
X182094434Y-68124868D01*
X182096656Y-68063066D01*
X182090197Y-67981682D01*
X182073942Y-67873700D01*
X182046776Y-67732108D01*
X182007584Y-67549888D01*
X181991957Y-67480244D01*
X181919965Y-67163725D01*
X181857224Y-66892016D01*
X181802349Y-66659303D01*
X181753956Y-66459769D01*
X181710661Y-66287600D01*
X181680995Y-66174032D01*
X181649857Y-66057521D01*
X181610353Y-65910599D01*
X181564827Y-65741897D01*
X181515623Y-65560048D01*
X181465086Y-65373684D01*
X181415560Y-65191439D01*
X181369389Y-65021945D01*
X181328917Y-64873834D01*
X181296489Y-64755739D01*
X181274448Y-64676292D01*
X181270101Y-64660895D01*
X181247876Y-64576461D01*
X181222116Y-64468862D01*
X181195293Y-64349769D01*
X181169882Y-64230854D01*
X181148358Y-64123788D01*
X181133193Y-64040243D01*
X181126863Y-63991888D01*
X181127045Y-63986046D01*
X181129335Y-63944335D01*
X181128528Y-63899244D01*
X181480891Y-63899244D01*
X181493874Y-64021739D01*
X181525050Y-64192075D01*
X181574366Y-64409978D01*
X181641767Y-64675177D01*
X181694913Y-64871568D01*
X181753459Y-65087614D01*
X181811693Y-65311016D01*
X181872269Y-65552360D01*
X181937838Y-65822233D01*
X182011054Y-66131221D01*
X182018060Y-66161099D01*
X182048671Y-66289601D01*
X182079886Y-66417071D01*
X182106809Y-66523649D01*
X182116894Y-66562016D01*
X182140638Y-66650808D01*
X182172352Y-66769998D01*
X182206819Y-66899960D01*
X182223476Y-66962932D01*
X182256869Y-67086800D01*
X182290042Y-67205626D01*
X182318000Y-67301689D01*
X182329210Y-67337983D01*
X182355770Y-67438816D01*
X182373131Y-67540767D01*
X182380041Y-67630166D01*
X182375251Y-67693342D01*
X182363697Y-67715016D01*
X182352804Y-67747284D01*
X182354934Y-67806964D01*
X182367792Y-67872055D01*
X182384405Y-67913492D01*
X182410074Y-67930625D01*
X182459099Y-67924888D01*
X182538882Y-67894463D01*
X182621455Y-67855295D01*
X182707048Y-67815623D01*
X182778158Y-67787651D01*
X182817669Y-67777698D01*
X182858212Y-67769332D01*
X182934879Y-67747012D01*
X183035338Y-67714910D01*
X183147262Y-67677195D01*
X183258318Y-67638037D01*
X183356178Y-67601606D01*
X183428512Y-67572072D01*
X183436811Y-67568303D01*
X183481263Y-67543485D01*
X183500512Y-67512314D01*
X183501271Y-67457148D01*
X183496413Y-67411651D01*
X183472531Y-67309526D01*
X183430108Y-67214163D01*
X183376943Y-67137831D01*
X183320837Y-67092801D01*
X183289338Y-67085893D01*
X183235475Y-67098440D01*
X183149384Y-67128541D01*
X183044912Y-67170232D01*
X182935906Y-67217548D01*
X182836215Y-67264525D01*
X182759685Y-67305199D01*
X182724462Y-67329177D01*
X182684271Y-67357357D01*
X182664579Y-67359758D01*
X182654487Y-67330712D01*
X182637172Y-67262283D01*
X182615382Y-67165851D01*
X182599495Y-67090484D01*
X182547747Y-66852134D01*
X182482085Y-66572691D01*
X182404525Y-66260282D01*
X182317082Y-65923031D01*
X182224530Y-65579124D01*
X182144083Y-65278723D01*
X182059167Y-64949867D01*
X181974195Y-64610298D01*
X181893581Y-64277759D01*
X181821737Y-63969993D01*
X181803317Y-63888297D01*
X182425289Y-63888297D01*
X182446266Y-63924362D01*
X182478159Y-63942544D01*
X182535010Y-63994899D01*
X182556570Y-64050823D01*
X182575473Y-64107995D01*
X182607867Y-64126851D01*
X182663415Y-64109069D01*
X182716587Y-64078613D01*
X182766141Y-64050543D01*
X182806450Y-64037697D01*
X182840343Y-64044924D01*
X182870651Y-64077070D01*
X182900204Y-64138981D01*
X182931832Y-64235506D01*
X182968367Y-64371491D01*
X183012638Y-64551783D01*
X183026398Y-64609164D01*
X183059136Y-64745483D01*
X183092487Y-64883474D01*
X183121682Y-65003455D01*
X183136014Y-65061812D01*
X183164099Y-65204145D01*
X183170447Y-65312536D01*
X183155033Y-65381879D01*
X183137653Y-65401290D01*
X183107191Y-65444496D01*
X183104769Y-65506200D01*
X183124403Y-65570707D01*
X183160105Y-65622320D01*
X183205890Y-65645344D01*
X183229359Y-65641760D01*
X183248774Y-65642255D01*
X183268346Y-65663314D01*
X183290510Y-65711105D01*
X183317701Y-65791794D01*
X183352354Y-65911550D01*
X183388439Y-66044704D01*
X183415928Y-66144936D01*
X183442282Y-66236283D01*
X183459048Y-66290427D01*
X183483848Y-66372848D01*
X183506274Y-66458553D01*
X183553587Y-66644219D01*
X183605510Y-66823720D01*
X183659043Y-66988459D01*
X183711187Y-67129839D01*
X183758943Y-67239263D01*
X183799311Y-67308132D01*
X183805071Y-67315020D01*
X183852948Y-67356451D01*
X183894400Y-67354361D01*
X183940769Y-67316053D01*
X183983964Y-67242173D01*
X184007287Y-67136153D01*
X184008164Y-67014604D01*
X183998042Y-66946668D01*
X183982179Y-66878539D01*
X183956104Y-66774179D01*
X183923299Y-66647243D01*
X183887246Y-66511386D01*
X183883466Y-66497352D01*
X183813943Y-66239073D01*
X183757261Y-66027179D01*
X183712514Y-65858183D01*
X183678800Y-65728597D01*
X183655214Y-65634933D01*
X183640851Y-65573705D01*
X183634808Y-65541426D01*
X183634482Y-65536972D01*
X183657026Y-65516719D01*
X183718727Y-65482400D01*
X183810492Y-65438600D01*
X183923226Y-65389908D01*
X183938238Y-65383748D01*
X184086463Y-65320585D01*
X184192817Y-65267383D01*
X184264742Y-65218470D01*
X184309678Y-65168173D01*
X184335069Y-65110822D01*
X184343245Y-65075076D01*
X184346197Y-65005206D01*
X184337513Y-64920041D01*
X184320673Y-64840576D01*
X184299153Y-64787809D01*
X184294772Y-64782484D01*
X184264312Y-64783756D01*
X184205642Y-64805708D01*
X184169649Y-64823403D01*
X184094937Y-64858007D01*
X184032657Y-64878456D01*
X184015023Y-64880825D01*
X183968131Y-64899732D01*
X183954115Y-64919403D01*
X183931091Y-64946553D01*
X183918925Y-64945470D01*
X183885921Y-64946976D01*
X183823331Y-64962582D01*
X183749259Y-64986344D01*
X183681810Y-65012317D01*
X183639088Y-65034556D01*
X183634318Y-65038927D01*
X183601712Y-65058522D01*
X183564538Y-65072573D01*
X183527523Y-65077506D01*
X183503576Y-65055691D01*
X183482506Y-64996137D01*
X183477830Y-64979063D01*
X183461150Y-64918721D01*
X183433013Y-64818889D01*
X183396320Y-64689775D01*
X183353971Y-64541588D01*
X183311828Y-64394823D01*
X183264536Y-64228855D01*
X183230954Y-64105682D01*
X183209803Y-64018585D01*
X183199801Y-63960849D01*
X183199670Y-63925756D01*
X183208131Y-63906588D01*
X183217477Y-63899568D01*
X183272635Y-63873957D01*
X183360776Y-63837145D01*
X183470420Y-63793491D01*
X183590091Y-63747353D01*
X183708310Y-63703090D01*
X183813599Y-63665062D01*
X183894480Y-63637626D01*
X183939475Y-63625142D01*
X183940522Y-63624995D01*
X183992476Y-63613675D01*
X184020805Y-63587885D01*
X184032196Y-63534995D01*
X184033434Y-63449475D01*
X184026115Y-63311817D01*
X184009256Y-63207120D01*
X183984359Y-63141775D01*
X183956465Y-63121893D01*
X183922787Y-63108685D01*
X183918839Y-63098113D01*
X183896482Y-63091620D01*
X183836768Y-63100184D01*
X183750734Y-63120583D01*
X183649415Y-63149591D01*
X183543849Y-63183984D01*
X183445070Y-63220539D01*
X183364116Y-63256031D01*
X183345805Y-63265524D01*
X183281109Y-63292942D01*
X183232289Y-63302952D01*
X183190019Y-63313702D01*
X183114661Y-63342477D01*
X183019346Y-63384064D01*
X182971676Y-63406415D01*
X182873491Y-63451959D01*
X182791241Y-63487277D01*
X182737155Y-63507247D01*
X182724675Y-63509877D01*
X182683009Y-63523762D01*
X182624816Y-63557345D01*
X182567672Y-63598518D01*
X182529156Y-63635175D01*
X182522274Y-63649286D01*
X182503625Y-63682040D01*
X182481164Y-63702232D01*
X182450024Y-63747035D01*
X182429033Y-63816059D01*
X182427972Y-63823127D01*
X182425289Y-63888297D01*
X181803317Y-63888297D01*
X181796725Y-63859062D01*
X181770519Y-63748274D01*
X181745882Y-63656141D01*
X181726171Y-63594621D01*
X181717345Y-63576428D01*
X181688143Y-63577692D01*
X181641224Y-63611380D01*
X181586885Y-63666429D01*
X181535423Y-63731772D01*
X181497135Y-63796345D01*
X181486156Y-63824861D01*
X181480891Y-63899244D01*
X181128528Y-63899244D01*
X181128419Y-63893137D01*
X181115283Y-63842714D01*
X181076013Y-63810366D01*
X181002806Y-63793033D01*
X180887861Y-63787650D01*
X180859909Y-63787731D01*
X180786916Y-63793912D01*
X180702909Y-63812974D01*
X180601358Y-63847457D01*
X180475733Y-63899900D01*
X180319502Y-63972842D01*
X180126136Y-64068822D01*
X180090733Y-64086782D01*
X180009863Y-64155717D01*
X179950295Y-64265402D01*
X179915420Y-64408055D01*
X179907747Y-64506709D01*
X179489998Y-64506709D01*
X179477889Y-64463344D01*
X179453314Y-64374022D01*
X179446744Y-64349515D01*
X179425277Y-64282975D01*
X179396613Y-64252444D01*
X179343545Y-64243175D01*
X179321709Y-64242375D01*
X179229778Y-64252986D01*
X179138142Y-64284038D01*
X179067971Y-64327338D01*
X179049691Y-64347651D01*
X179042000Y-64393739D01*
X179048448Y-64481996D01*
X179067609Y-64605254D01*
X179098055Y-64756351D01*
X179138358Y-64928119D01*
X179187092Y-65113393D01*
X179235743Y-65281669D01*
X179266616Y-65385236D01*
X179296219Y-65486587D01*
X179311541Y-65540325D01*
X179330105Y-65606052D01*
X179358925Y-65707404D01*
X179393984Y-65830286D01*
X179429427Y-65954174D01*
X179464283Y-66077250D01*
X179494119Y-66185235D01*
X179515840Y-66266744D01*
X179526349Y-66310392D01*
X179526486Y-66311154D01*
X179515565Y-66347309D01*
X179467162Y-66391159D01*
X179379430Y-66445715D01*
X179277526Y-66500648D01*
X179211612Y-66527849D01*
X179174890Y-66528656D01*
X179160560Y-66504408D01*
X179159572Y-66489027D01*
X179151953Y-66436298D01*
X179132790Y-66359334D01*
X179123163Y-66327367D01*
X179100552Y-66252072D01*
X179071647Y-66148171D01*
X179035452Y-66011814D01*
X178990972Y-65839153D01*
X178937210Y-65626339D01*
X178873170Y-65369524D01*
X178825816Y-65178207D01*
X178785598Y-65017259D01*
X178747765Y-64869405D01*
X178714660Y-64743524D01*
X178688625Y-64648494D01*
X178672001Y-64593193D01*
X178670120Y-64587963D01*
X178647454Y-64540063D01*
X178625601Y-64535089D01*
X178603872Y-64553328D01*
X178549176Y-64579016D01*
X178513388Y-64577979D01*
X178471603Y-64578398D01*
X178461201Y-64593215D01*
X178441796Y-64615793D01*
X178428869Y-64615631D01*
X178403326Y-64628419D01*
X178403004Y-64641496D01*
X178395726Y-64671237D01*
X178387745Y-64673828D01*
X178363102Y-64696747D01*
X178339451Y-64753950D01*
X178321254Y-64828107D01*
X178312978Y-64901887D01*
X178316671Y-64949725D01*
X178335538Y-65028205D01*
X178356197Y-65113543D01*
X178370247Y-65163697D01*
X178397610Y-65254830D01*
X178435731Y-65378686D01*
X178482058Y-65527005D01*
X178534037Y-65691529D01*
X178564146Y-65786048D01*
X178636627Y-66013311D01*
X178694746Y-66196648D01*
X178740084Y-66341344D01*
X178774226Y-66452686D01*
X178798755Y-66535960D01*
X178815252Y-66596452D01*
X178825302Y-66639447D01*
X178830486Y-66670232D01*
X178831381Y-66678411D01*
X178818588Y-66714777D01*
X178770962Y-66756479D01*
X178684387Y-66806015D01*
X178554746Y-66865889D01*
X178452575Y-66908632D01*
X178383519Y-66940737D01*
X178339838Y-66968690D01*
X178331874Y-66979763D01*
X178310963Y-66999461D01*
X178294444Y-67001730D01*
X178232001Y-67018091D01*
X178145403Y-67061606D01*
X178048120Y-67123928D01*
X177953621Y-67196709D01*
X177898795Y-67246944D01*
X177842165Y-67306423D01*
X177807523Y-67348520D01*
X177802235Y-67363849D01*
X177804148Y-67379939D01*
X177784289Y-67409113D01*
X177752968Y-67469392D01*
X177740950Y-67540855D01*
X177490134Y-67540855D01*
X177487172Y-67507640D01*
X177520961Y-67383524D01*
X177535192Y-67358171D01*
X177616839Y-67248470D01*
X177734023Y-67120910D01*
X177877859Y-66984141D01*
X178039462Y-66846812D01*
X178142927Y-66766495D01*
X178248071Y-66683978D01*
X178326929Y-66614250D01*
X178373238Y-66563172D01*
X178382939Y-66541869D01*
X178377054Y-66467047D01*
X178362137Y-66351867D01*
X178339993Y-66206555D01*
X178312424Y-66041334D01*
X178281236Y-65866431D01*
X178248233Y-65692070D01*
X178215219Y-65528478D01*
X178183999Y-65385879D01*
X178165248Y-65308214D01*
X178110891Y-65067422D01*
X178081340Y-64867695D01*
X178076211Y-64704914D01*
X178095117Y-64574961D01*
X178096293Y-64570657D01*
X178142804Y-64495970D01*
X178234300Y-64431948D01*
X178364498Y-64382366D01*
X178438864Y-64364811D01*
X178552456Y-64333190D01*
X178659298Y-64288038D01*
X178705637Y-64260904D01*
X178841287Y-64176218D01*
X178987088Y-64099546D01*
X179128909Y-64037323D01*
X179252619Y-63995982D01*
X179314859Y-63983558D01*
X179409556Y-63980468D01*
X179513256Y-63989526D01*
X179611597Y-64007879D01*
X179690215Y-64032673D01*
X179734749Y-64061056D01*
X179738646Y-64067752D01*
X179764250Y-64094157D01*
X179809183Y-64082946D01*
X179876999Y-64032336D01*
X179951273Y-63961104D01*
X180013004Y-63901552D01*
X180069860Y-63857995D01*
X180135547Y-63823179D01*
X180223768Y-63789853D01*
X180348228Y-63750762D01*
X180349389Y-63750412D01*
X180543814Y-63694137D01*
X180701230Y-63654509D01*
X180832802Y-63629323D01*
X180949696Y-63616373D01*
X181043544Y-63613339D01*
X181146550Y-63602737D01*
X181278409Y-63574446D01*
X181421620Y-63533743D01*
X181558682Y-63485901D01*
X181672091Y-63436198D01*
X181717889Y-63410080D01*
X181773973Y-63386140D01*
X181858758Y-63372530D01*
X181982791Y-63367685D01*
X182003736Y-63367616D01*
X182112084Y-63366656D01*
X182183690Y-63360979D01*
X182233537Y-63346395D01*
X182276612Y-63318711D01*
X182322817Y-63278366D01*
X182464482Y-63158026D01*
X182612181Y-63051743D01*
X182780034Y-62950295D01*
X182982162Y-62844458D01*
X183002600Y-62834362D01*
X183319981Y-62678213D01*
X183600011Y-62673729D01*
X183725044Y-62672438D01*
X183811920Y-62674984D01*
G37*
G36*
X182270930Y-119421250D02*
G01*
X182443829Y-119421603D01*
X182583286Y-119422371D01*
X182692866Y-119423700D01*
X182776134Y-119425738D01*
X182836658Y-119428630D01*
X182878003Y-119432525D01*
X182903734Y-119437569D01*
X182917418Y-119443909D01*
X182922622Y-119451691D01*
X182923160Y-119456669D01*
X182920003Y-119489833D01*
X182911472Y-119553772D01*
X182898873Y-119639238D01*
X182883733Y-119735622D01*
X182867800Y-119835192D01*
X182853847Y-119924205D01*
X182843419Y-119992689D01*
X182838168Y-120029792D01*
X182831948Y-120080511D01*
X182436341Y-120090654D01*
X182040734Y-120100798D01*
X182034872Y-120278314D01*
X182029010Y-120455830D01*
X182394976Y-120455830D01*
X182760942Y-120455830D01*
X182760942Y-120769819D01*
X182760942Y-121083808D01*
X182400838Y-121089348D01*
X182040734Y-121094888D01*
X182035301Y-121586860D01*
X182029869Y-122078833D01*
X181614335Y-122078833D01*
X181198801Y-122078833D01*
X181198801Y-120749999D01*
X181198801Y-119421165D01*
X182061021Y-119421165D01*
X182270930Y-119421250D01*
G37*
G36*
X184104991Y-119425355D02*
G01*
X184308964Y-119427187D01*
X184476595Y-119428982D01*
X184612118Y-119430979D01*
X184719764Y-119433420D01*
X184803767Y-119436543D01*
X184868359Y-119440589D01*
X184917772Y-119445798D01*
X184956239Y-119452411D01*
X184987994Y-119460666D01*
X185017268Y-119470805D01*
X185036084Y-119478164D01*
X185193466Y-119557864D01*
X185318873Y-119660126D01*
X185416536Y-119789195D01*
X185481774Y-119925416D01*
X185506534Y-120015429D01*
X185524846Y-120133510D01*
X185536055Y-120267569D01*
X185539507Y-120405514D01*
X185534550Y-120535256D01*
X185520648Y-120644088D01*
X185472928Y-120808567D01*
X185399626Y-120955846D01*
X185305199Y-121078695D01*
X185198059Y-121167412D01*
X185149953Y-121197804D01*
X185348514Y-121582528D01*
X185408969Y-121699096D01*
X185464603Y-121805307D01*
X185512237Y-121895171D01*
X185548688Y-121962703D01*
X185570777Y-122001912D01*
X185574136Y-122007269D01*
X185595326Y-122044596D01*
X185601197Y-122063060D01*
X185581858Y-122067565D01*
X185527633Y-122071568D01*
X185444210Y-122074876D01*
X185337277Y-122077295D01*
X185212522Y-122078631D01*
X185138624Y-122078833D01*
X184676051Y-122078833D01*
X184503323Y-121688298D01*
X184330596Y-121297763D01*
X184235545Y-121291579D01*
X184140494Y-121285396D01*
X184140494Y-121682115D01*
X184140494Y-122078833D01*
X183714456Y-122078833D01*
X183288418Y-122078833D01*
X183288418Y-120748568D01*
X183288418Y-120638418D01*
X184140494Y-120638418D01*
X184277435Y-120637934D01*
X184362837Y-120634786D01*
X184444854Y-120627111D01*
X184494983Y-120618761D01*
X184553112Y-120598305D01*
X184595715Y-120571137D01*
X184601493Y-120564649D01*
X184616028Y-120522877D01*
X184624771Y-120453958D01*
X184627771Y-120370896D01*
X184625079Y-120286697D01*
X184616745Y-120214365D01*
X184602821Y-120166906D01*
X184599926Y-120162281D01*
X184558630Y-120134720D01*
X184482522Y-120113119D01*
X184377072Y-120098565D01*
X184247751Y-120092146D01*
X184247004Y-120092135D01*
X184140494Y-120090654D01*
X184140494Y-120364536D01*
X184140494Y-120638418D01*
X183288418Y-120638418D01*
X183288418Y-120364536D01*
X183288418Y-119418303D01*
X184104991Y-119425355D01*
G37*
G36*
X181781213Y-116644950D02*
G01*
X182121782Y-116645192D01*
X182497130Y-116645593D01*
X182909035Y-116646142D01*
X183359277Y-116646826D01*
X183482130Y-116647024D01*
X183937893Y-116647782D01*
X184354872Y-116648523D01*
X184734860Y-116649266D01*
X185079648Y-116650031D01*
X185391027Y-116650837D01*
X185670790Y-116651705D01*
X185920727Y-116652653D01*
X186142632Y-116653702D01*
X186338295Y-116654870D01*
X186509508Y-116656178D01*
X186658063Y-116657645D01*
X186785751Y-116659290D01*
X186894365Y-116661134D01*
X186985695Y-116663196D01*
X187061534Y-116665495D01*
X187123674Y-116668050D01*
X187173905Y-116670883D01*
X187214020Y-116674012D01*
X187245810Y-116677456D01*
X187271067Y-116681236D01*
X187291583Y-116685371D01*
X187305351Y-116688829D01*
X187527815Y-116769674D01*
X187734859Y-116885395D01*
X187921553Y-117031926D01*
X188082969Y-117205199D01*
X188214175Y-117401150D01*
X188248390Y-117466776D01*
X188267753Y-117505567D01*
X188285260Y-117539994D01*
X188301008Y-117572173D01*
X188315094Y-117604220D01*
X188327616Y-117638251D01*
X188338671Y-117676383D01*
X188348356Y-117720731D01*
X188356770Y-117773412D01*
X188364009Y-117836542D01*
X188370171Y-117912238D01*
X188375353Y-118002616D01*
X188379652Y-118109791D01*
X188383167Y-118235881D01*
X188385994Y-118383002D01*
X188388231Y-118553269D01*
X188389975Y-118748799D01*
X188391323Y-118971708D01*
X188392374Y-119224113D01*
X188393224Y-119508129D01*
X188393970Y-119825874D01*
X188394711Y-120179463D01*
X188395543Y-120571012D01*
X188395763Y-120668849D01*
X188396660Y-121128950D01*
X188397163Y-121548822D01*
X188397270Y-121928811D01*
X188396979Y-122269262D01*
X188396289Y-122570520D01*
X188395198Y-122832930D01*
X188393704Y-123056836D01*
X188391805Y-123242585D01*
X188389500Y-123390520D01*
X188386786Y-123500987D01*
X188383662Y-123574330D01*
X188380695Y-123607669D01*
X188325253Y-123839891D01*
X188234392Y-124057933D01*
X188111302Y-124257718D01*
X187959171Y-124435165D01*
X187781190Y-124586195D01*
X187580546Y-124706728D01*
X187489621Y-124747546D01*
X187457051Y-124760898D01*
X187426677Y-124773132D01*
X187396686Y-124784296D01*
X187365262Y-124794439D01*
X187330592Y-124803608D01*
X187290861Y-124811852D01*
X187244253Y-124819219D01*
X187188955Y-124825757D01*
X187123152Y-124831514D01*
X187045029Y-124836538D01*
X186952772Y-124840878D01*
X186844566Y-124844581D01*
X186718596Y-124847696D01*
X186573049Y-124850271D01*
X186406108Y-124852355D01*
X186215961Y-124853994D01*
X186000791Y-124855237D01*
X185758785Y-124856133D01*
X185488128Y-124856730D01*
X185187005Y-124857076D01*
X184853602Y-124857218D01*
X184486104Y-124857205D01*
X184082697Y-124857086D01*
X183641566Y-124856908D01*
X183371982Y-124856799D01*
X182919829Y-124856608D01*
X182506417Y-124856391D01*
X182129913Y-124856132D01*
X181788484Y-124855809D01*
X181480296Y-124855406D01*
X181203515Y-124854903D01*
X180956309Y-124854280D01*
X180736843Y-124853520D01*
X180543284Y-124852604D01*
X180373798Y-124851513D01*
X180226552Y-124850228D01*
X180099713Y-124848730D01*
X179991447Y-124847001D01*
X179899920Y-124845022D01*
X179823299Y-124842774D01*
X179759750Y-124840238D01*
X179707440Y-124837395D01*
X179664536Y-124834228D01*
X179629204Y-124830716D01*
X179599610Y-124826841D01*
X179573920Y-124822585D01*
X179550302Y-124817929D01*
X179549023Y-124817660D01*
X179324023Y-124750154D01*
X179115785Y-124647923D01*
X178927681Y-124514542D01*
X178763084Y-124353589D01*
X178625368Y-124168641D01*
X178517906Y-123963275D01*
X178444071Y-123741067D01*
X178420183Y-123620686D01*
X178416619Y-123584844D01*
X178413450Y-123525326D01*
X178410668Y-123440794D01*
X178408265Y-123329910D01*
X178406234Y-123191336D01*
X178404567Y-123023733D01*
X178403256Y-122825763D01*
X178402294Y-122596089D01*
X178401672Y-122333373D01*
X178401384Y-122036275D01*
X178401421Y-121703459D01*
X178401775Y-121333585D01*
X178402439Y-120925316D01*
X178402801Y-120749999D01*
X179099041Y-120749999D01*
X179099041Y-123549680D01*
X179145095Y-123663527D01*
X179230199Y-123824590D01*
X179343097Y-123956228D01*
X179483289Y-124057940D01*
X179588466Y-124107632D01*
X179601559Y-124112379D01*
X179616648Y-124116722D01*
X179635512Y-124120679D01*
X179659929Y-124124268D01*
X179691680Y-124127509D01*
X179732543Y-124130418D01*
X179784298Y-124133016D01*
X179848725Y-124135320D01*
X179927602Y-124137349D01*
X180022710Y-124139122D01*
X180135827Y-124140657D01*
X180268732Y-124141972D01*
X180423206Y-124143086D01*
X180601028Y-124144018D01*
X180803977Y-124144786D01*
X181033831Y-124145409D01*
X181292372Y-124145905D01*
X181581377Y-124146292D01*
X181902627Y-124146590D01*
X182257901Y-124146816D01*
X182648977Y-124146989D01*
X183077637Y-124147129D01*
X183392377Y-124147213D01*
X183852325Y-124147303D01*
X184273426Y-124147316D01*
X184657408Y-124147240D01*
X185005999Y-124147060D01*
X185320927Y-124146764D01*
X185603920Y-124146336D01*
X185856706Y-124145764D01*
X186081014Y-124145035D01*
X186278571Y-124144133D01*
X186451105Y-124143046D01*
X186600344Y-124141759D01*
X186728017Y-124140260D01*
X186835850Y-124138534D01*
X186925574Y-124136568D01*
X186998914Y-124134348D01*
X187057600Y-124131861D01*
X187103359Y-124129092D01*
X187137920Y-124126029D01*
X187163011Y-124122656D01*
X187180359Y-124118962D01*
X187186146Y-124117174D01*
X187334155Y-124044800D01*
X187466645Y-123939086D01*
X187577440Y-123806176D01*
X187660361Y-123652216D01*
X187664897Y-123640974D01*
X187669973Y-123626438D01*
X187674550Y-123608467D01*
X187678655Y-123585006D01*
X187682312Y-123554004D01*
X187685549Y-123513407D01*
X187688390Y-123461164D01*
X187690860Y-123395220D01*
X187692986Y-123313524D01*
X187694793Y-123214023D01*
X187696307Y-123094663D01*
X187697553Y-122953393D01*
X187698557Y-122788160D01*
X187699345Y-122596910D01*
X187699941Y-122377592D01*
X187700373Y-122128152D01*
X187700664Y-121846538D01*
X187700842Y-121530696D01*
X187700931Y-121178575D01*
X187700957Y-120788121D01*
X187700958Y-120749999D01*
X187700958Y-117950319D01*
X187653590Y-117832964D01*
X187590081Y-117716032D01*
X187498912Y-117600703D01*
X187391541Y-117499301D01*
X187279421Y-117424151D01*
X187268386Y-117418553D01*
X187153194Y-117361980D01*
X183399999Y-117361980D01*
X179646804Y-117361980D01*
X179531612Y-117418553D01*
X179419648Y-117490400D01*
X179311285Y-117589730D01*
X179217981Y-117704221D01*
X179151189Y-117821547D01*
X179146408Y-117832964D01*
X179099041Y-117950319D01*
X179099041Y-120749999D01*
X178402801Y-120749999D01*
X178403011Y-120648562D01*
X178408994Y-117950319D01*
X178409264Y-117828594D01*
X178462363Y-117673056D01*
X178561020Y-117442151D01*
X178689594Y-117236389D01*
X178845622Y-117057919D01*
X179026639Y-116908889D01*
X179230181Y-116791448D01*
X179453784Y-116707743D01*
X179610417Y-116672150D01*
X179636457Y-116668275D01*
X179668813Y-116664744D01*
X179709265Y-116661545D01*
X179759591Y-116658667D01*
X179821571Y-116656098D01*
X179896982Y-116653827D01*
X179987605Y-116651842D01*
X180095217Y-116650131D01*
X180221598Y-116648684D01*
X180368527Y-116647488D01*
X180537781Y-116646533D01*
X180731142Y-116645805D01*
X180950386Y-116645295D01*
X181197294Y-116644990D01*
X181473643Y-116644879D01*
X181781213Y-116644950D01*
G37*
%TO.C,U2*%
D14*
X203316000Y-107545000D02*
X203316000Y-121515000D01*
X205221000Y-105640000D02*
X222366000Y-105640000D01*
X205221000Y-123420000D02*
X222366000Y-123420000D01*
X224271000Y-110035000D02*
X225281272Y-110038728D01*
D15*
X224271000Y-121515000D02*
X224271000Y-107545000D01*
D14*
X224271000Y-121515000D02*
X224271000Y-107545000D01*
X225281000Y-119034000D02*
X224271000Y-119034000D01*
X225781000Y-110538728D02*
X225781000Y-118534000D01*
X203316000Y-107545000D02*
G75*
G02*
X205221000Y-105640000I1905001J-1D01*
G01*
X205221000Y-123420000D02*
G75*
G02*
X203316000Y-121515000I1J1905001D01*
G01*
X222366000Y-105640000D02*
G75*
G02*
X224271000Y-107545000I0J-1905000D01*
G01*
X224271000Y-121515000D02*
G75*
G02*
X222366000Y-123420000I-1905000J0D01*
G01*
X225281272Y-110038728D02*
G75*
G02*
X225780972Y-110538728I-272J-499972D01*
G01*
X225781000Y-118534000D02*
G75*
G02*
X225281000Y-119034000I-500000J0D01*
G01*
D16*
X223402000Y-106723000D02*
G75*
G02*
X222898000Y-106723000I-252000J0D01*
G01*
X222898000Y-106723000D02*
G75*
G02*
X223402000Y-106723000I252000J0D01*
G01*
X224282000Y-105580000D02*
G75*
G02*
X223778000Y-105580000I-252000J0D01*
G01*
X223778000Y-105580000D02*
G75*
G02*
X224282000Y-105580000I252000J0D01*
G01*
%TO.C,R1*%
D12*
X181070000Y-94000000D02*
X182020000Y-94000000D01*
X186810000Y-94000000D02*
X185860000Y-94000000D01*
X182020000Y-93080000D02*
X185860000Y-93080000D01*
X185860000Y-94920000D01*
X182020000Y-94920000D01*
X182020000Y-93080000D01*
%TO.C,J2*%
X203980000Y-101530000D02*
X203980001Y-100150000D01*
X205360000Y-101529999D02*
X203980000Y-101530000D01*
X206630000Y-98770000D02*
X224520000Y-98770001D01*
X206630000Y-101530000D02*
X206630000Y-98770000D01*
X206630000Y-101530000D02*
X224520000Y-101529999D01*
X224520000Y-101529999D02*
X224520000Y-98770001D01*
D13*
%TO.C,G\u002A\u002A\u002A*%
G36*
X229600652Y-76081198D02*
G01*
X229985665Y-76081804D01*
X230334273Y-76082804D01*
X230645489Y-76084188D01*
X230918325Y-76085948D01*
X231151795Y-76088075D01*
X231344911Y-76090561D01*
X231496686Y-76093396D01*
X231606133Y-76096573D01*
X231672266Y-76100081D01*
X231693503Y-76103212D01*
X231729065Y-76135484D01*
X231771372Y-76191634D01*
X231789803Y-76221640D01*
X231814173Y-76263728D01*
X231858388Y-76339369D01*
X231919342Y-76443274D01*
X231993928Y-76570157D01*
X232079037Y-76714729D01*
X232171563Y-76871704D01*
X232243077Y-76992905D01*
X232641563Y-77667958D01*
X232641563Y-80087673D01*
X232641563Y-82507388D01*
X232591428Y-82542504D01*
X232534847Y-82566278D01*
X232463601Y-82577490D01*
X232456082Y-82577620D01*
X232370870Y-82577620D01*
X232370870Y-82844816D01*
X232369993Y-82961759D01*
X232366590Y-83042143D01*
X232359504Y-83094505D01*
X232347581Y-83127380D01*
X232329662Y-83149306D01*
X232329618Y-83149346D01*
X232321276Y-83154624D01*
X232307022Y-83159384D01*
X232284627Y-83163652D01*
X232251861Y-83167454D01*
X232206493Y-83170817D01*
X232146294Y-83173767D01*
X232069034Y-83176332D01*
X231972484Y-83178537D01*
X231854414Y-83180410D01*
X231712593Y-83181976D01*
X231544792Y-83183262D01*
X231348782Y-83184296D01*
X231122332Y-83185103D01*
X230863213Y-83185710D01*
X230569194Y-83186143D01*
X230238047Y-83186430D01*
X229867541Y-83186596D01*
X229455446Y-83186669D01*
X229195705Y-83186678D01*
X228757189Y-83186642D01*
X228361584Y-83186514D01*
X228006683Y-83186272D01*
X227690282Y-83185890D01*
X227410175Y-83185342D01*
X227164158Y-83184604D01*
X226950025Y-83183651D01*
X226765571Y-83182458D01*
X226608591Y-83181000D01*
X226476879Y-83179251D01*
X226368230Y-83177187D01*
X226280439Y-83174784D01*
X226211301Y-83172015D01*
X226158611Y-83168856D01*
X226120163Y-83165281D01*
X226093752Y-83161267D01*
X226077173Y-83156788D01*
X226068221Y-83151819D01*
X226067597Y-83151230D01*
X226051957Y-83135018D01*
X226041252Y-83117838D01*
X226034654Y-83091727D01*
X226031338Y-83048721D01*
X226030476Y-82980857D01*
X226031242Y-82880172D01*
X226032046Y-82808836D01*
X226034659Y-82577620D01*
X226277828Y-82577620D01*
X226284696Y-82746789D01*
X226291563Y-82915959D01*
X229195870Y-82915972D01*
X232100177Y-82915986D01*
X232100177Y-82746803D01*
X232100177Y-82577620D01*
X229189003Y-82577620D01*
X226277828Y-82577620D01*
X226034659Y-82577620D01*
X225942148Y-82577620D01*
X225860935Y-82566312D01*
X225799326Y-82527170D01*
X225793965Y-82521948D01*
X225738294Y-82466277D01*
X225738772Y-82273580D01*
X226081250Y-82273580D01*
X226084189Y-82278296D01*
X226096593Y-82282553D01*
X226120589Y-82286375D01*
X226158307Y-82289784D01*
X226211873Y-82292803D01*
X226283418Y-82295455D01*
X226375069Y-82297763D01*
X226488956Y-82299749D01*
X226627205Y-82301436D01*
X226791946Y-82302847D01*
X226985308Y-82304005D01*
X227209418Y-82304932D01*
X227466406Y-82305651D01*
X227758399Y-82306185D01*
X228087526Y-82306557D01*
X228455916Y-82306789D01*
X228865697Y-82306904D01*
X229201376Y-82306927D01*
X229639242Y-82306919D01*
X230034195Y-82306873D01*
X230388435Y-82306758D01*
X230704166Y-82306544D01*
X230983588Y-82306197D01*
X231228904Y-82305688D01*
X231442315Y-82304985D01*
X231626023Y-82304057D01*
X231782230Y-82302871D01*
X231913137Y-82301398D01*
X232020947Y-82299605D01*
X232107861Y-82297462D01*
X232176081Y-82294936D01*
X232227809Y-82291997D01*
X232265246Y-82288613D01*
X232290594Y-82284754D01*
X232306055Y-82280387D01*
X232313832Y-82275481D01*
X232316124Y-82270005D01*
X232315136Y-82263928D01*
X232314736Y-82262632D01*
X232302643Y-82232858D01*
X232274077Y-82166612D01*
X232231099Y-82068554D01*
X232175770Y-81943346D01*
X232110152Y-81795647D01*
X232036307Y-81630117D01*
X231956295Y-81451418D01*
X231929735Y-81392234D01*
X231848792Y-81211475D01*
X231773942Y-81043358D01*
X231707149Y-80892374D01*
X231650381Y-80763009D01*
X231605603Y-80659751D01*
X231574781Y-80587088D01*
X231559882Y-80549509D01*
X231558792Y-80545499D01*
X231537093Y-80539427D01*
X231475420Y-80534163D01*
X231378912Y-80529898D01*
X231252707Y-80526825D01*
X231101943Y-80525136D01*
X231006625Y-80524867D01*
X230454459Y-80524867D01*
X230448322Y-80945269D01*
X230442185Y-81365672D01*
X229834806Y-81689674D01*
X229682284Y-81770516D01*
X229541787Y-81843991D01*
X229418452Y-81907491D01*
X229317413Y-81958409D01*
X229243805Y-81994137D01*
X229202763Y-82012070D01*
X229196688Y-82013677D01*
X229169595Y-82003877D01*
X229107392Y-81976112D01*
X229015202Y-81932834D01*
X228898146Y-81876495D01*
X228761347Y-81809547D01*
X228609925Y-81734441D01*
X228534114Y-81696495D01*
X228349659Y-81603351D01*
X228202113Y-81527464D01*
X228087669Y-81466657D01*
X228002521Y-81418752D01*
X227942862Y-81381572D01*
X227904885Y-81352939D01*
X227884784Y-81330678D01*
X227880802Y-81322824D01*
X227873525Y-81281644D01*
X227867303Y-81204391D01*
X227862591Y-81100104D01*
X227859843Y-80977822D01*
X227859325Y-80895601D01*
X227859325Y-80536145D01*
X228141296Y-80536145D01*
X228141296Y-81190320D01*
X228569893Y-81409220D01*
X228697423Y-81474012D01*
X228811438Y-81531289D01*
X228905821Y-81578030D01*
X228974453Y-81611214D01*
X229011216Y-81627821D01*
X229015408Y-81629158D01*
X229019838Y-81607842D01*
X229023835Y-81547175D01*
X229027240Y-81452917D01*
X229029895Y-81330831D01*
X229031642Y-81186679D01*
X229032046Y-81091604D01*
X229303019Y-81091604D01*
X229303669Y-81245312D01*
X229305496Y-81382903D01*
X229308317Y-81498329D01*
X229311952Y-81585545D01*
X229316216Y-81638504D01*
X229319938Y-81652145D01*
X229344042Y-81641782D01*
X229401746Y-81613169D01*
X229486934Y-81569457D01*
X229593487Y-81513795D01*
X229715288Y-81449332D01*
X229754174Y-81428594D01*
X230171492Y-81205652D01*
X230182771Y-80639659D01*
X230185183Y-80480693D01*
X230185748Y-80360784D01*
X231761812Y-80360784D01*
X231999181Y-80888340D01*
X232067597Y-81040538D01*
X232133364Y-81187113D01*
X232193109Y-81320521D01*
X232243456Y-81433222D01*
X232281030Y-81517675D01*
X232298071Y-81556276D01*
X232329618Y-81626603D01*
X232353682Y-81677167D01*
X232365157Y-81697244D01*
X232365231Y-81697262D01*
X232366083Y-81675343D01*
X232366896Y-81611584D01*
X232367661Y-81509257D01*
X232368367Y-81371638D01*
X232369005Y-81202001D01*
X232369565Y-81003620D01*
X232370038Y-80779769D01*
X232370414Y-80533724D01*
X232370684Y-80268757D01*
X232370837Y-79988144D01*
X232370870Y-79780462D01*
X232370870Y-77863055D01*
X232066341Y-77863055D01*
X231761812Y-77863055D01*
X231761812Y-79111920D01*
X231761812Y-80360784D01*
X230185748Y-80360784D01*
X230185845Y-80340196D01*
X230184844Y-80223783D01*
X230182262Y-80137073D01*
X230178185Y-80085680D01*
X230174250Y-80073690D01*
X230148089Y-80083982D01*
X230090481Y-80112136D01*
X230009412Y-80154093D01*
X229912867Y-80205793D01*
X229892279Y-80217013D01*
X229775400Y-80280545D01*
X229654848Y-80345478D01*
X229545373Y-80403900D01*
X229466563Y-80445384D01*
X229303019Y-80530455D01*
X229303019Y-81091604D01*
X229032046Y-81091604D01*
X229032323Y-81026224D01*
X229032327Y-81013354D01*
X229032546Y-80828964D01*
X229033417Y-80684471D01*
X229035253Y-80574661D01*
X229036969Y-80530455D01*
X229038372Y-80494318D01*
X229043089Y-80438224D01*
X229049720Y-80401164D01*
X229058581Y-80377923D01*
X229069988Y-80363283D01*
X229071803Y-80361627D01*
X229102914Y-80340988D01*
X229167505Y-80303071D01*
X229259085Y-80251514D01*
X229371160Y-80189954D01*
X229497236Y-80122030D01*
X229541646Y-80098393D01*
X229671199Y-80029262D01*
X229789230Y-79965539D01*
X229889186Y-79910824D01*
X229964510Y-79868714D01*
X230008649Y-79842807D01*
X230015308Y-79838388D01*
X230031453Y-79822987D01*
X230030231Y-79807474D01*
X230005994Y-79787554D01*
X229953090Y-79758929D01*
X229865870Y-79717302D01*
X229840702Y-79705596D01*
X229739556Y-79655190D01*
X229659483Y-79608470D01*
X229608821Y-79570545D01*
X229597008Y-79556263D01*
X229582250Y-79487019D01*
X229609925Y-79422062D01*
X229654147Y-79382655D01*
X229675841Y-79370537D01*
X229699584Y-79365551D01*
X229731993Y-79369786D01*
X229779683Y-79385331D01*
X229849271Y-79414276D01*
X229947373Y-79458709D01*
X230058110Y-79510211D01*
X230174719Y-79565594D01*
X230277485Y-79616139D01*
X230359175Y-79658151D01*
X230412560Y-79687935D01*
X230429762Y-79700131D01*
X230439131Y-79732322D01*
X230447746Y-79799426D01*
X230454581Y-79891241D01*
X230458324Y-79984854D01*
X230464742Y-80242895D01*
X230977931Y-80248958D01*
X231491119Y-80255021D01*
X231491119Y-79111920D01*
X231491119Y-79059038D01*
X231491119Y-77863055D01*
X230566252Y-77863055D01*
X229641385Y-77863055D01*
X229641385Y-78091223D01*
X229641385Y-78319390D01*
X229472202Y-78493242D01*
X229303019Y-78667093D01*
X229303019Y-78960052D01*
X229301253Y-79099280D01*
X229295655Y-79198459D01*
X229285779Y-79262528D01*
X229272706Y-79294467D01*
X229245029Y-79315179D01*
X229182367Y-79352548D01*
X229090328Y-79403537D01*
X228974518Y-79465111D01*
X228840545Y-79534234D01*
X228694015Y-79607870D01*
X228691845Y-79608947D01*
X228141296Y-79881971D01*
X228141296Y-80536145D01*
X227859325Y-80536145D01*
X227859325Y-80524867D01*
X227357355Y-80524867D01*
X226855386Y-80524867D01*
X226471964Y-81382550D01*
X226389471Y-81567479D01*
X226312719Y-81740304D01*
X226243677Y-81896535D01*
X226184315Y-82031680D01*
X226136601Y-82141248D01*
X226102507Y-82220747D01*
X226084001Y-82265686D01*
X226081250Y-82273580D01*
X225738772Y-82273580D01*
X225744236Y-80068796D01*
X225744950Y-79780462D01*
X225749702Y-77863055D01*
X226009591Y-77863055D01*
X226009591Y-79780462D01*
X226009732Y-80070242D01*
X226010139Y-80346722D01*
X226010791Y-80606624D01*
X226011669Y-80846674D01*
X226012751Y-81063595D01*
X226014016Y-81254112D01*
X226015443Y-81414950D01*
X226017012Y-81542831D01*
X226018701Y-81634482D01*
X226020490Y-81686625D01*
X226021814Y-81697868D01*
X226036289Y-81678878D01*
X226063295Y-81628717D01*
X226097396Y-81557596D01*
X226102853Y-81545604D01*
X226131448Y-81482064D01*
X226174931Y-81385093D01*
X226229824Y-81262465D01*
X226292647Y-81121955D01*
X226359922Y-80971338D01*
X226406439Y-80867107D01*
X226641208Y-80340875D01*
X226641208Y-80254174D01*
X226911900Y-80254174D01*
X227385613Y-80254174D01*
X227859325Y-80254174D01*
X227859325Y-80011058D01*
X227861673Y-79883474D01*
X227861800Y-79881971D01*
X227869158Y-79794862D01*
X227882437Y-79739304D01*
X227891482Y-79722031D01*
X227919754Y-79700315D01*
X227983170Y-79662361D01*
X228076077Y-79611202D01*
X228192825Y-79549867D01*
X228327764Y-79481388D01*
X228475242Y-79408796D01*
X228477983Y-79407467D01*
X229032327Y-79138815D01*
X229032327Y-78900770D01*
X229032327Y-78662725D01*
X228863144Y-78494671D01*
X228693961Y-78326617D01*
X228693961Y-78210992D01*
X228964653Y-78210992D01*
X229059581Y-78307716D01*
X229111981Y-78359049D01*
X229151648Y-78394122D01*
X229167673Y-78404440D01*
X229189229Y-78389595D01*
X229231826Y-78351055D01*
X229275765Y-78307716D01*
X229370693Y-78210992D01*
X229370693Y-78037023D01*
X229370693Y-77863055D01*
X229167673Y-77863055D01*
X228964653Y-77863055D01*
X228964653Y-78037023D01*
X228964653Y-78210992D01*
X228693961Y-78210992D01*
X228693961Y-78094836D01*
X228693961Y-78037023D01*
X228693961Y-77863055D01*
X227802931Y-77863055D01*
X226911900Y-77863055D01*
X226911900Y-79058614D01*
X226911900Y-80254174D01*
X226641208Y-80254174D01*
X226641208Y-79101965D01*
X226641208Y-79058614D01*
X226641208Y-77863055D01*
X226325399Y-77863055D01*
X226009591Y-77863055D01*
X225749702Y-77863055D01*
X225750177Y-77671314D01*
X225810845Y-77568864D01*
X226144938Y-77568864D01*
X226164158Y-77580895D01*
X226223172Y-77587460D01*
X226324014Y-77588713D01*
X226387433Y-77587486D01*
X226629929Y-77581083D01*
X226629929Y-77411900D01*
X226629929Y-77396531D01*
X226629929Y-77242717D01*
X226479240Y-77236083D01*
X226358716Y-77230777D01*
X226911900Y-77230777D01*
X226911900Y-77396531D01*
X226913858Y-77479191D01*
X226919020Y-77543330D01*
X226926321Y-77576392D01*
X226927268Y-77577653D01*
X226952893Y-77581344D01*
X227017904Y-77584319D01*
X227116576Y-77586498D01*
X227243184Y-77587803D01*
X227392004Y-77588154D01*
X227557309Y-77587473D01*
X227609639Y-77587052D01*
X228276643Y-77581083D01*
X228276643Y-77411900D01*
X228276643Y-77242717D01*
X227594272Y-77236747D01*
X226911900Y-77230777D01*
X226358716Y-77230777D01*
X226328551Y-77229449D01*
X226236745Y-77386644D01*
X226193762Y-77463171D01*
X226161552Y-77526102D01*
X226145694Y-77564361D01*
X226144938Y-77568864D01*
X225810845Y-77568864D01*
X226141424Y-77010618D01*
X228551600Y-77010618D01*
X228551794Y-77104299D01*
X228553226Y-77217116D01*
X228554134Y-77264924D01*
X228560932Y-77592362D01*
X229168832Y-77592362D01*
X229776732Y-77592362D01*
X231761812Y-77592362D01*
X232009947Y-77592362D01*
X232109654Y-77590703D01*
X232190234Y-77586204D01*
X232242582Y-77579582D01*
X232258082Y-77572790D01*
X232247452Y-77545378D01*
X232219187Y-77489725D01*
X232178721Y-77416358D01*
X232164933Y-77392328D01*
X232071785Y-77231439D01*
X231916798Y-77231439D01*
X231761812Y-77231439D01*
X231761812Y-77411900D01*
X231761812Y-77592362D01*
X229776732Y-77592362D01*
X229776732Y-77396862D01*
X229776732Y-77242717D01*
X229776732Y-77231439D01*
X230047424Y-77231439D01*
X230047424Y-77396862D01*
X230049384Y-77479435D01*
X230054550Y-77543477D01*
X230061856Y-77576420D01*
X230062778Y-77577639D01*
X230088326Y-77581245D01*
X230153408Y-77584172D01*
X230252448Y-77586347D01*
X230379869Y-77587696D01*
X230530095Y-77588147D01*
X230697548Y-77587626D01*
X230778986Y-77587038D01*
X231479840Y-77581083D01*
X231486215Y-77411900D01*
X231486428Y-77406261D01*
X231493017Y-77231439D01*
X230770220Y-77231439D01*
X230047424Y-77231439D01*
X229776732Y-77231439D01*
X229776732Y-76893073D01*
X229169553Y-76893073D01*
X228978115Y-76893887D01*
X228818691Y-76896258D01*
X228694192Y-76900083D01*
X228607529Y-76905255D01*
X228561613Y-76911669D01*
X228554855Y-76915280D01*
X228552626Y-76944726D01*
X228551600Y-77010618D01*
X226141424Y-77010618D01*
X226170957Y-76960746D01*
X226179822Y-76945809D01*
X226505861Y-76945809D01*
X226525491Y-76956303D01*
X226572777Y-76960745D01*
X226573534Y-76960746D01*
X226911900Y-76960746D01*
X227599911Y-76960746D01*
X228287922Y-76960746D01*
X228287922Y-76826679D01*
X228287747Y-76775182D01*
X228289988Y-76733144D01*
X228298796Y-76699608D01*
X228318319Y-76673613D01*
X228352707Y-76654204D01*
X228406108Y-76640421D01*
X228482673Y-76631306D01*
X228586551Y-76625901D01*
X228721892Y-76623248D01*
X228892843Y-76622390D01*
X229103556Y-76622367D01*
X229172692Y-76622380D01*
X229381785Y-76622476D01*
X229550438Y-76622935D01*
X229683327Y-76624010D01*
X229785129Y-76625956D01*
X229860518Y-76629027D01*
X229914172Y-76633478D01*
X229950765Y-76639562D01*
X229974974Y-76647534D01*
X229991474Y-76657648D01*
X230002309Y-76667495D01*
X230031483Y-76710966D01*
X230045099Y-76774485D01*
X230047424Y-76836678D01*
X230047424Y-76960746D01*
X230769272Y-76960746D01*
X231491119Y-76960746D01*
X231491119Y-76847957D01*
X231761812Y-76847957D01*
X231763290Y-76914725D01*
X231772381Y-76948020D01*
X231796066Y-76959479D01*
X231829485Y-76960746D01*
X231877034Y-76957002D01*
X231897154Y-76947985D01*
X231897158Y-76947844D01*
X231886747Y-76921964D01*
X231861048Y-76874097D01*
X231828358Y-76818229D01*
X231796976Y-76768342D01*
X231775200Y-76738419D01*
X231770947Y-76735169D01*
X231765734Y-76755472D01*
X231762426Y-76807381D01*
X231761812Y-76847957D01*
X231491119Y-76847957D01*
X231491119Y-76656216D01*
X231491119Y-76351687D01*
X229201510Y-76351687D01*
X226911900Y-76351687D01*
X226911900Y-76656216D01*
X226911900Y-76960746D01*
X226573534Y-76960746D01*
X226613595Y-76958282D01*
X226633572Y-76943131D01*
X226640448Y-76903655D01*
X226641208Y-76847957D01*
X226639349Y-76783596D01*
X226634595Y-76742761D01*
X226630880Y-76735169D01*
X226614719Y-76752768D01*
X226585888Y-76796153D01*
X226552766Y-76851208D01*
X226523732Y-76903814D01*
X226507165Y-76939854D01*
X226505861Y-76945809D01*
X226179822Y-76945809D01*
X226269617Y-76794517D01*
X226352075Y-76656216D01*
X226363282Y-76637419D01*
X226448933Y-76494463D01*
X226523548Y-76370663D01*
X226584107Y-76271030D01*
X226627592Y-76200577D01*
X226650095Y-76165586D01*
X226708452Y-76080994D01*
X229180220Y-76080994D01*
X229600652Y-76081198D01*
G37*
%TD*%
M02*
