M48
; DRILL file KiCad 10.0.6 date 2026-10-10T21:51:32
; FORMAT={-:-/ absolute / metric / decimal}
; #@! TF.CreationDate,2026-10-10T21:51:32+01:00
; #@! TF.GenerationSoftware,Kicad,Pcbnew,10.0.6
; #@! TF.FileFunction,Plated,1,2,PTH
FMAT,2
METRIC
; #@! TA.AperFunction,Plated,PTH,ComponentDrill
T1C0.700
; #@! TA.AperFunction,Plated,PTH,ComponentDrill
T2C0.800
; #@! TA.AperFunction,Plated,PTH,ComponentDrill
T3C0.889
; #@! TA.AperFunction,Plated,PTH,ComponentDrill
T4C1.000
; #@! TA.AperFunction,Plated,PTH,ComponentDrill
T5C1.500
%
G90
G05
T1
X180.13Y-94.0
X187.75Y-94.0
T2
X198.8Y-107.08
X198.8Y-109.62
X198.8Y-112.16
X198.8Y-114.7
T3
X206.11Y-106.91
X206.11Y-122.15
X208.65Y-106.91
X208.65Y-122.15
X211.19Y-106.91
X211.19Y-122.15
X213.73Y-106.91
X213.73Y-122.15
X216.27Y-106.91
X216.27Y-122.15
X218.81Y-106.91
X218.81Y-122.15
X221.35Y-106.91
X221.35Y-122.15
T4
X205.36Y-100.15
X207.414Y-70.151
X207.9Y-100.15
X209.954Y-70.151
X210.44Y-100.15
X212.494Y-70.151
X212.98Y-100.15
X215.034Y-70.151
X215.52Y-100.15
X218.06Y-100.15
X220.6Y-100.15
X223.14Y-100.15
T5
X180.04Y-77.91
X180.15Y-105.29
X186.39Y-75.37
X186.5Y-102.75
M30
