%TF.GenerationSoftware,KiCad,Pcbnew,10.0.6*%
%TF.CreationDate,2026-10-10T21:50:40+01:00*%
%TF.ProjectId,KiCad PCB,4b694361-6420-4504-9342-2e6b69636164,rev?*%
%TF.SameCoordinates,Original*%
%TF.FileFunction,Copper,L1,Top*%
%TF.FilePolarity,Positive*%
%FSLAX46Y46*%
G04 Gerber Fmt 4.6, Leading zero omitted, Abs format (unit mm)*
G04 Created by KiCad (PCBNEW 10.0.6) date 2026-10-10 21:50:40*
%MOMM*%
%LPD*%
G01*
G04 APERTURE LIST*
G04 Aperture macros list*
%AMRoundRect*
0 Rectangle with rounded corners*
0 $1 Rounding radius*
0 $2 $3 $4 $5 $6 $7 $8 $9 X,Y pos of 4 corners*
0 Add a 4 corners polygon primitive as box body*
4,1,4,$2,$3,$4,$5,$6,$7,$8,$9,$2,$3,0*
0 Add four circle primitives for the rounded corners*
1,1,$1+$1,$2,$3*
1,1,$1+$1,$4,$5*
1,1,$1+$1,$6,$7*
1,1,$1+$1,$8,$9*
0 Add four rect primitives between the rounded corners*
20,1,$1+$1,$2,$3,$4,$5,0*
20,1,$1+$1,$4,$5,$6,$7,0*
20,1,$1+$1,$6,$7,$8,$9,0*
20,1,$1+$1,$8,$9,$2,$3,0*%
G04 Aperture macros list end*
%TA.AperFunction,ComponentPad*%
%ADD10C,2.200000*%
%TD*%
%TA.AperFunction,ComponentPad*%
%ADD11R,1.500000X1.500000*%
%TD*%
%TA.AperFunction,ComponentPad*%
%ADD12C,1.500000*%
%TD*%
%TA.AperFunction,ComponentPad*%
%ADD13R,1.700000X1.700000*%
%TD*%
%TA.AperFunction,ComponentPad*%
%ADD14O,1.700000X1.700000*%
%TD*%
%TA.AperFunction,SMDPad,CuDef*%
%ADD15RoundRect,0.152400X0.609600X-1.063600X0.609600X1.063600X-0.609600X1.063600X-0.609600X-1.063600X0*%
%TD*%
%TA.AperFunction,ComponentPad*%
%ADD16C,1.524000*%
%TD*%
%TA.AperFunction,SMDPad,CuDef*%
%ADD17RoundRect,0.152400X-0.609600X1.063600X-0.609600X-1.063600X0.609600X-1.063600X0.609600X1.063600X0*%
%TD*%
%TA.AperFunction,ComponentPad*%
%ADD18C,1.400000*%
%TD*%
%TA.AperFunction,ComponentPad*%
%ADD19C,1.700000*%
%TD*%
%TA.AperFunction,Conductor*%
%ADD20C,0.200000*%
%TD*%
G04 APERTURE END LIST*
D10*
%TO.P,SW2,1,1_1*%
%TO.N,/GPIO3*%
X186500000Y-102750000D03*
%TO.P,SW2,2,2_2*%
%TO.N,GND*%
X180150000Y-105290000D03*
%TD*%
D11*
%TO.P,U1,1,VDD_1*%
%TO.N,+3.3V*%
X198800000Y-107080000D03*
D12*
%TO.P,U1,2,DATA_2*%
%TO.N,/DHT11 DATA*%
X198800000Y-109620000D03*
%TO.P,U1,3,NC_3*%
%TO.N,unconnected-(U1-NC-Pad3)*%
X198800000Y-112160000D03*
%TO.P,U1,4,GND_4*%
%TO.N,GND*%
X198800000Y-114700000D03*
%TD*%
D10*
%TO.P,SW1,1,1_1*%
%TO.N,/GPIO2*%
X186390000Y-75370000D03*
%TO.P,SW1,2,2_2*%
%TO.N,GND*%
X180040000Y-77910000D03*
%TD*%
D13*
%TO.P,J1,1,Pin_1_1*%
%TO.N,/SDA*%
X207414000Y-70151000D03*
D14*
%TO.P,J1,2,Pin_2_2*%
%TO.N,/SCL*%
X209954000Y-70151000D03*
%TO.P,J1,3,Pin_3_3*%
%TO.N,+3.3V*%
X212494000Y-70151000D03*
%TO.P,J1,4,Pin_4_4*%
%TO.N,GND*%
X215034000Y-70151000D03*
%TD*%
D15*
%TO.P,U2,1,D0_1*%
%TO.N,unconnected-(U2-D0-Pad1)*%
X221350000Y-106075000D03*
D16*
X221350000Y-106910000D03*
D15*
%TO.P,U2,2,D1_2*%
%TO.N,/DHT11 DATA*%
X218810000Y-106075000D03*
D16*
X218810000Y-106910000D03*
D15*
%TO.P,U2,3,D2_3*%
%TO.N,/GPIO2*%
X216270000Y-106075000D03*
D16*
X216270000Y-106910000D03*
D15*
%TO.P,U2,4,D3_4*%
%TO.N,/GPIO3*%
X213730000Y-106075000D03*
D16*
X213730000Y-106910000D03*
D15*
%TO.P,U2,5,D4_5*%
%TO.N,/SCL*%
X211190000Y-106075000D03*
D16*
X211190000Y-106910000D03*
D15*
%TO.P,U2,6,D5_6*%
%TO.N,/SDA*%
X208650000Y-106075000D03*
D16*
X208650000Y-106910000D03*
D15*
%TO.P,U2,7,D6_7*%
%TO.N,unconnected-(U2-D6-Pad7)*%
X206110000Y-106075000D03*
D16*
X206110000Y-106910000D03*
%TO.P,U2,8,D7_8*%
%TO.N,unconnected-(U2-D7-Pad8)*%
X206110000Y-122150000D03*
D17*
X206110000Y-122985000D03*
D16*
%TO.P,U2,9,D8_9*%
%TO.N,unconnected-(U2-D8-Pad9)*%
X208650000Y-122150000D03*
D17*
X208650000Y-122985000D03*
D16*
%TO.P,U2,10,D9/BOOT_10*%
%TO.N,unconnected-(U2-D9{slash}BOOT-Pad10)*%
X211190000Y-122150000D03*
D17*
X211190000Y-122985000D03*
D16*
%TO.P,U2,11,D10_11*%
%TO.N,unconnected-(U2-D10-Pad11)*%
X213730000Y-122150000D03*
D17*
X213730000Y-122985000D03*
D16*
%TO.P,U2,12,3V3_OUT_12*%
%TO.N,+3.3V*%
X216270000Y-122150000D03*
D17*
X216270000Y-122985000D03*
D16*
%TO.P,U2,13,GND_13*%
%TO.N,GND*%
X218810000Y-122150000D03*
D17*
X218810000Y-122985000D03*
D16*
%TO.P,U2,14,VBUS_14*%
%TO.N,+5V*%
X221350000Y-122150000D03*
D17*
X221350000Y-122985000D03*
%TD*%
D18*
%TO.P,R1,1*%
%TO.N,+3.3V*%
X180130000Y-94000000D03*
%TO.P,R1,2*%
%TO.N,/DHT11 DATA*%
X187750000Y-94000000D03*
%TD*%
D13*
%TO.P,J2,1,Pin_1_1*%
%TO.N,+3.3V*%
X205360000Y-100150000D03*
D19*
%TO.P,J2,2,Pin_2_2*%
%TO.N,GND*%
X207900000Y-100150000D03*
%TO.P,J2,3,Pin_3_3*%
%TO.N,/SCL*%
X210439999Y-100150000D03*
%TO.P,J2,4,Pin_4_4*%
%TO.N,/SDA*%
X212980000Y-100150000D03*
%TO.P,J2,5,Pin_5_5*%
%TO.N,unconnected-(J2-Pin_5-Pad5)*%
X215520000Y-100150000D03*
%TO.P,J2,6,Pin_6_6*%
%TO.N,unconnected-(J2-Pin_6-Pad6)*%
X218060000Y-100150000D03*
%TO.P,J2,7,Pin_7_7*%
%TO.N,unconnected-(J2-Pin_7-Pad7)*%
X220600000Y-100150000D03*
%TO.P,J2,8,Pin_8_8*%
%TO.N,unconnected-(J2-Pin_8-Pad8)*%
X223140001Y-100150000D03*
%TD*%
%TO.N,/GPIO3*%
D20*
X213730000Y-104270000D02*
X213730000Y-106910000D01*
X186500000Y-102750000D02*
X187900000Y-104150000D01*
X213750000Y-104150000D02*
X213750000Y-104250000D01*
X187900000Y-104150000D02*
X213750000Y-104150000D01*
X213750000Y-104250000D02*
X213730000Y-104270000D01*
%TO.N,+3.3V*%
X208210000Y-103000000D02*
X216415686Y-103000000D01*
X216709895Y-107972000D02*
X199692000Y-107972000D01*
X183950000Y-101000000D02*
X183950000Y-104450000D01*
X216270000Y-115580000D02*
X216270000Y-122150000D01*
X191000000Y-105250000D02*
X192830000Y-107080000D01*
X181580000Y-92550000D02*
X189950000Y-92550000D01*
X205360000Y-100150000D02*
X208010000Y-102800000D01*
X216415686Y-103000000D02*
X217332000Y-103916314D01*
X212544000Y-70201000D02*
X212544000Y-87306000D01*
X189950000Y-95000000D02*
X183950000Y-101000000D01*
X189950000Y-92550000D02*
X189950000Y-95000000D01*
X225950000Y-105900000D02*
X216270000Y-115580000D01*
X199692000Y-107972000D02*
X198800000Y-107080000D01*
X205360000Y-94490000D02*
X205360000Y-100150000D01*
X217332000Y-107349895D02*
X216709895Y-107972000D01*
X212494000Y-70151000D02*
X212544000Y-70201000D01*
X212544000Y-87306000D02*
X205360000Y-94490000D01*
X217332000Y-103916314D02*
X217332000Y-107349895D01*
X180130000Y-94000000D02*
X181580000Y-92550000D01*
X183950000Y-104450000D02*
X184750000Y-105250000D01*
X184750000Y-105250000D02*
X191000000Y-105250000D01*
X205360000Y-100150000D02*
X208210000Y-103000000D01*
X222850000Y-102800000D02*
X225950000Y-105900000D01*
X208010000Y-102800000D02*
X222850000Y-102800000D01*
X192830000Y-107080000D02*
X198800000Y-107080000D01*
%TO.N,/DHT11 DATA*%
X175650000Y-111500000D02*
X196920000Y-111500000D01*
X187750000Y-94000000D02*
X175650000Y-106100000D01*
X196920000Y-111500000D02*
X198800000Y-109620000D01*
X198800000Y-109620000D02*
X216100000Y-109620000D01*
X175650000Y-106100000D02*
X175650000Y-111500000D01*
X216100000Y-109620000D02*
X218810000Y-106910000D01*
%TO.N,/GPIO2*%
X195850000Y-102700000D02*
X196550000Y-103400000D01*
X196550000Y-103400000D02*
X216250000Y-103400000D01*
X195850000Y-78600000D02*
X195850000Y-102700000D01*
X186390000Y-75370000D02*
X192620000Y-75370000D01*
X216270000Y-103420000D02*
X216270000Y-106910000D01*
X192620000Y-75370000D02*
X195850000Y-78600000D01*
X216250000Y-103400000D02*
X216270000Y-103420000D01*
%TD*%
M02*
