%TF.GenerationSoftware,KiCad,Pcbnew,10.0.6*%
%TF.CreationDate,2026-10-10T21:50:40+01:00*%
%TF.ProjectId,KiCad PCB,4b694361-6420-4504-9342-2e6b69636164,rev?*%
%TF.SameCoordinates,Original*%
%TF.FileFunction,Soldermask,Top*%
%TF.FilePolarity,Negative*%
%FSLAX46Y46*%
G04 Gerber Fmt 4.6, Leading zero omitted, Abs format (unit mm)*
G04 Created by KiCad (PCBNEW 10.0.6) date 2026-10-10 21:50:40*
%MOMM*%
%LPD*%
G01*
G04 APERTURE LIST*
G04 Aperture macros list*
%AMRoundRect*
0 Rectangle with rounded corners*
0 $1 Rounding radius*
0 $2 $3 $4 $5 $6 $7 $8 $9 X,Y pos of 4 corners*
0 Add a 4 corners polygon primitive as box body*
4,1,4,$2,$3,$4,$5,$6,$7,$8,$9,$2,$3,0*
0 Add four circle primitives for the rounded corners*
1,1,$1+$1,$2,$3*
1,1,$1+$1,$4,$5*
1,1,$1+$1,$6,$7*
1,1,$1+$1,$8,$9*
0 Add four rect primitives between the rounded corners*
20,1,$1+$1,$2,$3,$4,$5,0*
20,1,$1+$1,$4,$5,$6,$7,0*
20,1,$1+$1,$6,$7,$8,$9,0*
20,1,$1+$1,$8,$9,$2,$3,0*%
G04 Aperture macros list end*
%ADD10C,1.700000*%
%ADD11C,4.000000*%
%ADD12C,2.200000*%
%ADD13R,1.500000X1.500000*%
%ADD14C,1.500000*%
%ADD15O,3.800000X2.900000*%
%ADD16R,1.700000X1.700000*%
%ADD17O,1.700000X1.700000*%
%ADD18RoundRect,0.152400X0.609600X-1.063600X0.609600X1.063600X-0.609600X1.063600X-0.609600X-1.063600X0*%
%ADD19C,1.524000*%
%ADD20RoundRect,0.152400X-0.609600X1.063600X-0.609600X-1.063600X0.609600X-1.063600X0.609600X1.063600X0*%
%ADD21C,1.400000*%
G04 APERTURE END LIST*
D10*
%TO.C,SW2*%
X178880000Y-107830000D03*
D11*
X183960000Y-107830000D03*
D10*
X189040000Y-107830000D03*
D12*
X186500000Y-102750000D03*
X180150000Y-105290000D03*
%TD*%
D13*
%TO.C,U1*%
X198800000Y-107080000D03*
D14*
X198800000Y-109620000D03*
X198800000Y-112160000D03*
X198800000Y-114700000D03*
%TD*%
D10*
%TO.C,SW1*%
X178770000Y-80450000D03*
D11*
X183850000Y-80450000D03*
D10*
X188930000Y-80450000D03*
D12*
X186390000Y-75370000D03*
X180040000Y-77910000D03*
%TD*%
D15*
%TO.C,J1*%
X200048000Y-70786000D03*
X200048000Y-93900000D03*
X222400000Y-70786000D03*
X222400000Y-93900000D03*
D16*
X207414000Y-70151000D03*
D17*
X209954000Y-70151000D03*
X212494000Y-70151000D03*
X215034000Y-70151000D03*
%TD*%
D18*
%TO.C,U2*%
X221350000Y-106075000D03*
D19*
X221350000Y-106910000D03*
D18*
X218810000Y-106075000D03*
D19*
X218810000Y-106910000D03*
D18*
X216270000Y-106075000D03*
D19*
X216270000Y-106910000D03*
D18*
X213730000Y-106075000D03*
D19*
X213730000Y-106910000D03*
D18*
X211190000Y-106075000D03*
D19*
X211190000Y-106910000D03*
D18*
X208650000Y-106075000D03*
D19*
X208650000Y-106910000D03*
D18*
X206110000Y-106075000D03*
D19*
X206110000Y-106910000D03*
X206110000Y-122150000D03*
D20*
X206110000Y-122985000D03*
D19*
X208650000Y-122150000D03*
D20*
X208650000Y-122985000D03*
D19*
X211190000Y-122150000D03*
D20*
X211190000Y-122985000D03*
D19*
X213730000Y-122150000D03*
D20*
X213730000Y-122985000D03*
D19*
X216270000Y-122150000D03*
D20*
X216270000Y-122985000D03*
D19*
X218810000Y-122150000D03*
D20*
X218810000Y-122985000D03*
D19*
X221350000Y-122150000D03*
D20*
X221350000Y-122985000D03*
%TD*%
D21*
%TO.C,R1*%
X180130000Y-94000000D03*
X187750000Y-94000000D03*
%TD*%
D16*
%TO.C,J2*%
X205360000Y-100150000D03*
D10*
X207900000Y-100150000D03*
X210439999Y-100150000D03*
X212980000Y-100150000D03*
X215520000Y-100150000D03*
X218060000Y-100150000D03*
X220600000Y-100150000D03*
X223140001Y-100150000D03*
%TD*%
M02*
